<svg width="1094" height="812" viewBox="0 0 1094 812" fill="none" xmlns="http://www.w3.org/2000/svg">
<g clip-path="url(#clip0_551_332)">
<g opacity="0.3">
<path d="M754.94 450.62H639.07C634.966 450.62 631.64 453.947 631.64 458.05V482.71C631.64 486.814 634.966 490.14 639.07 490.14H754.94C759.043 490.14 762.37 486.814 762.37 482.71V458.05C762.37 453.947 759.043 450.62 754.94 450.62Z" fill="#D0A617"/>
<path d="M891.749 490.14H775.879C771.776 490.14 768.449 493.467 768.449 497.57V522.23C768.449 526.334 771.776 529.66 775.879 529.66H891.749C895.853 529.66 899.179 526.334 899.179 522.23V497.57C899.179 493.467 895.853 490.14 891.749 490.14Z" fill="#D0A617"/>
<path d="M1028.57 529.67H912.7C908.596 529.67 905.27 532.996 905.27 537.1V561.76C905.27 565.863 908.596 569.19 912.7 569.19H1028.57C1032.67 569.19 1036 565.863 1036 561.76V537.1C1036 532.996 1032.67 529.67 1028.57 529.67Z" fill="#D0A617"/>
<path d="M754.94 391.33H639.07C634.966 391.33 631.64 394.657 631.64 398.76V423.42C631.64 427.524 634.966 430.85 639.07 430.85H754.94C759.043 430.85 762.37 427.524 762.37 423.42V398.76C762.37 394.657 759.043 391.33 754.94 391.33Z" fill="#D0A617"/>
<path d="M891.749 430.86H775.879C771.776 430.86 768.449 434.186 768.449 438.29V462.95C768.449 467.053 771.776 470.38 775.879 470.38H891.749C895.853 470.38 899.179 467.053 899.179 462.95V438.29C899.179 434.186 895.853 430.86 891.749 430.86Z" fill="#D0A617"/>
<path d="M1028.57 470.38H912.7C908.596 470.38 905.27 473.706 905.27 477.81V502.47C905.27 506.573 908.596 509.9 912.7 509.9H1028.57C1032.67 509.9 1036 506.573 1036 502.47V477.81C1036 473.706 1032.67 470.38 1028.57 470.38Z" fill="#D0A617"/>
<path d="M754.94 312.29H639.07C634.966 312.29 631.64 315.617 631.64 319.72V344.38C631.64 348.484 634.966 351.81 639.07 351.81H754.94C759.043 351.81 762.37 348.484 762.37 344.38V319.72C762.37 315.617 759.043 312.29 754.94 312.29Z" fill="#D0A617"/>
<path d="M891.749 351.81H775.879C771.776 351.81 768.449 355.137 768.449 359.24V383.9C768.449 388.004 771.776 391.33 775.879 391.33H891.749C895.853 391.33 899.179 388.004 899.179 383.9V359.24C899.179 355.137 895.853 351.81 891.749 351.81Z" fill="#D0A617"/>
<path d="M1028.57 391.33H912.7C908.596 391.33 905.27 394.657 905.27 398.76V423.42C905.27 427.524 908.596 430.85 912.7 430.85H1028.57C1032.67 430.85 1036 427.524 1036 423.42V398.76C1036 394.657 1032.67 391.33 1028.57 391.33Z" fill="#D0A617"/>
<path d="M754.94 253H639.07C634.966 253 631.64 256.327 631.64 260.43V285.09C631.64 289.193 634.966 292.52 639.07 292.52H754.94C759.043 292.52 762.37 289.193 762.37 285.09V260.43C762.37 256.327 759.043 253 754.94 253Z" fill="#D0A617"/>
<path d="M891.749 292.52H775.879C771.776 292.52 768.449 295.847 768.449 299.95V324.61C768.449 328.713 771.776 332.04 775.879 332.04H891.749C895.853 332.04 899.179 328.713 899.179 324.61V299.95C899.179 295.847 895.853 292.52 891.749 292.52Z" fill="#D0A617"/>
<path d="M1028.57 332.05H912.7C908.596 332.05 905.27 335.376 905.27 339.48V364.14C905.27 368.243 908.596 371.57 912.7 371.57H1028.57C1032.67 371.57 1036 368.243 1036 364.14V339.48C1036 335.376 1032.67 332.05 1028.57 332.05Z" fill="#D0A617"/>
<path opacity="0.1" d="M754.94 450.62H639.07C634.966 450.62 631.64 453.947 631.64 458.05V482.71C631.64 486.814 634.966 490.14 639.07 490.14H754.94C759.043 490.14 762.37 486.814 762.37 482.71V458.05C762.37 453.947 759.043 450.62 754.94 450.62Z" fill="#D0A617"/>
<path opacity="0.1" d="M891.749 490.14H775.879C771.776 490.14 768.449 493.467 768.449 497.57V522.23C768.449 526.334 771.776 529.66 775.879 529.66H891.749C895.853 529.66 899.179 526.334 899.179 522.23V497.57C899.179 493.467 895.853 490.14 891.749 490.14Z" fill="#D0A617"/>
<path opacity="0.1" d="M1028.57 529.67H912.7C908.596 529.67 905.27 532.996 905.27 537.1V561.76C905.27 565.863 908.596 569.19 912.7 569.19H1028.57C1032.67 569.19 1036 565.863 1036 561.76V537.1C1036 532.996 1032.67 529.67 1028.57 529.67Z" fill="#D0A617"/>
<path opacity="0.1" d="M754.94 391.33H639.07C634.966 391.33 631.64 394.657 631.64 398.76V423.42C631.64 427.524 634.966 430.85 639.07 430.85H754.94C759.043 430.85 762.37 427.524 762.37 423.42V398.76C762.37 394.657 759.043 391.33 754.94 391.33Z" fill="#D0A617"/>
<path opacity="0.1" d="M891.749 430.86H775.879C771.776 430.86 768.449 434.186 768.449 438.29V462.95C768.449 467.053 771.776 470.38 775.879 470.38H891.749C895.853 470.38 899.179 467.053 899.179 462.95V438.29C899.179 434.186 895.853 430.86 891.749 430.86Z" fill="#D0A617"/>
<path opacity="0.1" d="M1028.57 470.38H912.7C908.596 470.38 905.27 473.706 905.27 477.81V502.47C905.27 506.573 908.596 509.9 912.7 509.9H1028.57C1032.67 509.9 1036 506.573 1036 502.47V477.81C1036 473.706 1032.67 470.38 1028.57 470.38Z" fill="#D0A617"/>
<path opacity="0.1" d="M754.94 312.29H639.07C634.966 312.29 631.64 315.617 631.64 319.72V344.38C631.64 348.484 634.966 351.81 639.07 351.81H754.94C759.043 351.81 762.37 348.484 762.37 344.38V319.72C762.37 315.617 759.043 312.29 754.94 312.29Z" fill="#D0A617"/>
<path opacity="0.1" d="M891.749 351.81H775.879C771.776 351.81 768.449 355.137 768.449 359.24V383.9C768.449 388.004 771.776 391.33 775.879 391.33H891.749C895.853 391.33 899.179 388.004 899.179 383.9V359.24C899.179 355.137 895.853 351.81 891.749 351.81Z" fill="#D0A617"/>
<path opacity="0.1" d="M1028.57 391.33H912.7C908.596 391.33 905.27 394.657 905.27 398.76V423.42C905.27 427.524 908.596 430.85 912.7 430.85H1028.57C1032.67 430.85 1036 427.524 1036 423.42V398.76C1036 394.657 1032.67 391.33 1028.57 391.33Z" fill="#D0A617"/>
<path opacity="0.1" d="M754.94 253H639.07C634.966 253 631.64 256.327 631.64 260.43V285.09C631.64 289.193 634.966 292.52 639.07 292.52H754.94C759.043 292.52 762.37 289.193 762.37 285.09V260.43C762.37 256.327 759.043 253 754.94 253Z" fill="#D0A617"/>
<path opacity="0.1" d="M891.749 292.52H775.879C771.776 292.52 768.449 295.847 768.449 299.95V324.61C768.449 328.713 771.776 332.04 775.879 332.04H891.749C895.853 332.04 899.179 328.713 899.179 324.61V299.95C899.179 295.847 895.853 292.52 891.749 292.52Z" fill="#D0A617"/>
<path opacity="0.1" d="M1028.57 332.05H912.7C908.596 332.05 905.27 335.376 905.27 339.48V364.14C905.27 368.243 908.596 371.57 912.7 371.57H1028.57C1032.67 371.57 1036 368.243 1036 364.14V339.48C1036 335.376 1032.67 332.05 1028.57 332.05Z" fill="#D0A617"/>
</g>
<g opacity="0.3">
<path d="M242.94 197.62H127.07C122.967 197.62 119.64 200.947 119.64 205.05V229.71C119.64 233.814 122.967 237.14 127.07 237.14H242.94C247.044 237.14 250.37 233.814 250.37 229.71V205.05C250.37 200.947 247.044 197.62 242.94 197.62Z" fill="#D0A617"/>
<path d="M379.75 237.14H263.88C259.777 237.14 256.45 240.467 256.45 244.57V269.23C256.45 273.334 259.777 276.66 263.88 276.66H379.75C383.854 276.66 387.18 273.334 387.18 269.23V244.57C387.18 240.467 383.854 237.14 379.75 237.14Z" fill="#D0A617"/>
<path d="M516.571 276.67H400.701C396.597 276.67 393.271 279.996 393.271 284.1V308.76C393.271 312.863 396.597 316.19 400.701 316.19H516.571C520.674 316.19 524.001 312.863 524.001 308.76V284.1C524.001 279.996 520.674 276.67 516.571 276.67Z" fill="#D0A617"/>
<path d="M242.94 138.33H127.07C122.967 138.33 119.64 141.657 119.64 145.76V170.42C119.64 174.524 122.967 177.85 127.07 177.85H242.94C247.044 177.85 250.37 174.524 250.37 170.42V145.76C250.37 141.657 247.044 138.33 242.94 138.33Z" fill="#D0A617"/>
<path d="M379.75 177.86H263.88C259.777 177.86 256.45 181.186 256.45 185.29V209.95C256.45 214.053 259.777 217.38 263.88 217.38H379.75C383.854 217.38 387.18 214.053 387.18 209.95V185.29C387.18 181.186 383.854 177.86 379.75 177.86Z" fill="#D0A617"/>
<path d="M516.571 217.38H400.701C396.597 217.38 393.271 220.706 393.271 224.81V249.47C393.271 253.573 396.597 256.9 400.701 256.9H516.571C520.674 256.9 524.001 253.573 524.001 249.47V224.81C524.001 220.706 520.674 217.38 516.571 217.38Z" fill="#D0A617"/>
<path d="M242.94 59.29H127.07C122.967 59.29 119.64 62.6166 119.64 66.72V91.38C119.64 95.4835 122.967 98.81 127.07 98.81H242.94C247.044 98.81 250.37 95.4835 250.37 91.38V66.72C250.37 62.6166 247.044 59.29 242.94 59.29Z" fill="#D0A617"/>
<path d="M379.75 98.8101H263.88C259.777 98.8101 256.45 102.137 256.45 106.24V130.9C256.45 135.004 259.777 138.33 263.88 138.33H379.75C383.854 138.33 387.18 135.004 387.18 130.9V106.24C387.18 102.137 383.854 98.8101 379.75 98.8101Z" fill="#D0A617"/>
<path d="M516.571 138.33H400.701C396.597 138.33 393.271 141.657 393.271 145.76V170.42C393.271 174.524 396.597 177.85 400.701 177.85H516.571C520.674 177.85 524.001 174.524 524.001 170.42V145.76C524.001 141.657 520.674 138.33 516.571 138.33Z" fill="#D0A617"/>
<path d="M242.94 0H127.07C122.967 0 119.64 3.32652 119.64 7.43V32.09C119.64 36.1935 122.967 39.52 127.07 39.52H242.94C247.044 39.52 250.37 36.1935 250.37 32.09V7.43C250.37 3.32652 247.044 0 242.94 0Z" fill="#D0A617"/>
<path d="M379.75 39.52H263.88C259.777 39.52 256.45 42.8465 256.45 46.95V71.61C256.45 75.7135 259.777 79.04 263.88 79.04H379.75C383.854 79.04 387.18 75.7135 387.18 71.61V46.95C387.18 42.8465 383.854 39.52 379.75 39.52Z" fill="#D0A617"/>
<path d="M516.571 79.0498H400.701C396.597 79.0498 393.271 82.3763 393.271 86.4798V111.14C393.271 115.243 396.597 118.57 400.701 118.57H516.571C520.674 118.57 524.001 115.243 524.001 111.14V86.4798C524.001 82.3763 520.674 79.0498 516.571 79.0498Z" fill="#D0A617"/>
<path opacity="0.1" d="M242.94 197.62H127.07C122.967 197.62 119.64 200.947 119.64 205.05V229.71C119.64 233.814 122.967 237.14 127.07 237.14H242.94C247.044 237.14 250.37 233.814 250.37 229.71V205.05C250.37 200.947 247.044 197.62 242.94 197.62Z" fill="#D0A617"/>
<path opacity="0.1" d="M379.75 237.14H263.88C259.777 237.14 256.45 240.467 256.45 244.57V269.23C256.45 273.334 259.777 276.66 263.88 276.66H379.75C383.854 276.66 387.18 273.334 387.18 269.23V244.57C387.18 240.467 383.854 237.14 379.75 237.14Z" fill="#D0A617"/>
<path opacity="0.1" d="M516.571 276.67H400.701C396.597 276.67 393.271 279.996 393.271 284.1V308.76C393.271 312.863 396.597 316.19 400.701 316.19H516.571C520.674 316.19 524.001 312.863 524.001 308.76V284.1C524.001 279.996 520.674 276.67 516.571 276.67Z" fill="#D0A617"/>
<path opacity="0.1" d="M242.94 138.33H127.07C122.967 138.33 119.64 141.657 119.64 145.76V170.42C119.64 174.524 122.967 177.85 127.07 177.85H242.94C247.044 177.85 250.37 174.524 250.37 170.42V145.76C250.37 141.657 247.044 138.33 242.94 138.33Z" fill="#D0A617"/>
<path opacity="0.1" d="M379.75 177.86H263.88C259.777 177.86 256.45 181.186 256.45 185.29V209.95C256.45 214.053 259.777 217.38 263.88 217.38H379.75C383.854 217.38 387.18 214.053 387.18 209.95V185.29C387.18 181.186 383.854 177.86 379.75 177.86Z" fill="#D0A617"/>
<path opacity="0.1" d="M516.571 217.38H400.701C396.597 217.38 393.271 220.706 393.271 224.81V249.47C393.271 253.573 396.597 256.9 400.701 256.9H516.571C520.674 256.9 524.001 253.573 524.001 249.47V224.81C524.001 220.706 520.674 217.38 516.571 217.38Z" fill="#D0A617"/>
<path opacity="0.1" d="M242.94 59.29H127.07C122.967 59.29 119.64 62.6166 119.64 66.72V91.38C119.64 95.4835 122.967 98.81 127.07 98.81H242.94C247.044 98.81 250.37 95.4835 250.37 91.38V66.72C250.37 62.6166 247.044 59.29 242.94 59.29Z" fill="#D0A617"/>
<path opacity="0.1" d="M379.75 98.8101H263.88C259.777 98.8101 256.45 102.137 256.45 106.24V130.9C256.45 135.004 259.777 138.33 263.88 138.33H379.75C383.854 138.33 387.18 135.004 387.18 130.9V106.24C387.18 102.137 383.854 98.8101 379.75 98.8101Z" fill="#D0A617"/>
<path opacity="0.1" d="M516.571 138.33H400.701C396.597 138.33 393.271 141.657 393.271 145.76V170.42C393.271 174.524 396.597 177.85 400.701 177.85H516.571C520.674 177.85 524.001 174.524 524.001 170.42V145.76C524.001 141.657 520.674 138.33 516.571 138.33Z" fill="#D0A617"/>
<path opacity="0.1" d="M242.94 0H127.07C122.967 0 119.64 3.32652 119.64 7.43V32.09C119.64 36.1935 122.967 39.52 127.07 39.52H242.94C247.044 39.52 250.37 36.1935 250.37 32.09V7.43C250.37 3.32652 247.044 0 242.94 0Z" fill="#D0A617"/>
<path opacity="0.1" d="M379.75 39.52H263.88C259.777 39.52 256.45 42.8465 256.45 46.95V71.61C256.45 75.7135 259.777 79.04 263.88 79.04H379.75C383.854 79.04 387.18 75.7135 387.18 71.61V46.95C387.18 42.8465 383.854 39.52 379.75 39.52Z" fill="#D0A617"/>
<path opacity="0.1" d="M516.571 79.0498H400.701C396.597 79.0498 393.271 82.3763 393.271 86.4798V111.14C393.271 115.243 396.597 118.57 400.701 118.57H516.571C520.674 118.57 524.001 115.243 524.001 111.14V86.4798C524.001 82.3763 520.674 79.0498 516.571 79.0498Z" fill="#D0A617"/>
</g>
<g opacity="0.22">
<path d="M295.61 552.2C295.625 557.869 295.042 563.524 293.87 569.07C293.65 570.07 293.41 571.14 293.17 572.14C287 596.91 269.57 615.03 248.78 616.14C248.09 616.14 247.39 616.2 246.67 616.2C224.67 616.2 206.09 597.2 199.96 571.12C199.78 570.42 199.63 569.73 199.48 569.03C198.308 563.484 197.725 557.829 197.74 552.16C197.74 516.77 219.64 488.16 246.67 488.16C273.7 488.16 295.61 516.81 295.61 552.2Z" fill="#8E97FD"/>
<path opacity="0.1" d="M295.61 552.2C295.625 557.869 295.042 563.524 293.87 569.07C293.65 570.07 293.41 571.14 293.17 572.14C292.43 572.14 291.71 572.14 290.98 572.05C285.596 571.755 280.245 571.023 274.98 569.86C270.311 571.299 265.541 572.389 260.71 573.12C257.005 573.662 253.272 573.996 249.53 574.12C248.27 574.12 247.01 574.19 245.75 574.19C241.269 574.188 236.792 573.89 232.35 573.3C225.18 572.333 218.138 570.582 211.35 568.08C207.63 569.306 203.84 570.307 200 571.08C199.82 570.38 199.67 569.69 199.52 568.99C198.348 563.444 197.765 557.789 197.78 552.12C197.78 516.73 219.68 488.12 246.71 488.12C273.74 488.12 295.61 516.81 295.61 552.2Z" fill="#368885"/>
<path d="M399.999 432.87C400.021 417.301 396.372 401.946 389.349 388.05L331.799 405.94L382.309 376.24C373.84 363.997 362.729 353.814 349.796 346.442C336.863 339.071 322.439 334.699 307.589 333.65C305.23 330.063 302.641 326.633 299.839 323.38L217.109 349.11L284.899 309.25C271.934 299.316 256.723 292.728 240.608 290.067C224.493 287.406 207.97 288.755 192.5 293.993C177.03 299.232 163.087 308.199 151.904 320.103C140.721 332.008 132.642 346.483 128.379 362.25L199.189 443.76L122.269 388.24C102.818 402.037 88.9701 422.362 83.2485 445.514C77.5269 468.665 80.3123 493.101 91.0974 514.371C101.882 535.64 119.949 552.328 142.007 561.393C164.064 570.459 188.645 571.298 211.269 563.76C231.753 571.281 254.134 571.895 274.999 565.51C289.537 568.724 304.611 568.634 319.11 565.249C333.609 561.863 347.163 555.267 358.774 545.948C370.385 536.628 379.758 524.822 386.2 511.399C392.643 497.976 395.991 483.279 395.999 468.39C395.999 466.18 395.919 463.99 395.779 461.81C398.604 452.424 400.026 442.672 399.999 432.87Z" fill="#368885"/>
<path opacity="0.1" d="M398.29 451.32C367.897 445.558 336.73 445.162 306.2 450.15C271.65 455.87 236.33 468.44 202.53 459.25C182.7 453.85 165.53 441.37 146.18 434.45C127.487 427.909 107.344 426.694 87.9999 430.94C80.6218 448.573 78.4778 467.958 81.8242 486.778C85.1706 505.597 93.8659 523.055 106.871 537.063C119.875 551.072 136.639 561.039 155.158 565.774C173.677 570.508 193.168 569.809 211.3 563.76C231.774 571.274 254.144 571.889 275 565.51C289.538 568.724 304.611 568.634 319.11 565.249C333.609 561.863 347.163 555.267 358.775 545.948C370.386 536.628 379.758 524.822 386.201 511.399C392.643 497.976 395.992 483.279 396 468.39C396 466.18 395.92 463.99 395.78 461.81C396.808 458.362 397.645 454.86 398.29 451.32Z" fill="#368885"/>
</g>
<path opacity="0.1" d="M547 799.1C849.1 799.1 1094 754.552 1094 699.6C1094 644.648 849.1 600.1 547 600.1C244.9 600.1 0 644.648 0 699.6C0 754.552 244.9 799.1 547 799.1Z" fill="#2F2E41"/>
<path d="M726.68 711.07C727.416 708.062 728.876 705.28 730.932 702.966C732.989 700.651 735.58 698.875 738.481 697.79C741.381 696.706 744.502 696.347 747.573 696.744C750.644 697.141 753.571 698.283 756.099 700.07L756.88 700.64C773.61 713.18 763.68 736.18 756.88 736.7C750.08 737.22 737 737.78 737 737.78C737 737.78 721.59 731.42 726.68 711.07Z" fill="#192534"/>
<path d="M877.62 695.44V699.62C877.62 699.62 809.62 704.32 802.36 704.32H788.77C788.77 704.32 788.57 704.53 788.24 704.91C787.68 705.54 786.73 706.65 785.68 708.03C783.54 710.81 780.99 714.69 780.4 717.91C779.4 723.66 775.7 725.75 775.7 725.75L762.11 722.1L749 706.42L747.09 704.58L741.65 699.39L737 694.94L737.23 692.44V692.06C738.342 686.689 739.764 681.387 741.49 676.18C741.49 676.04 741.58 675.89 741.63 675.75C745.4 664.43 751.69 650.68 760.75 646.59C761.44 646.28 762.16 645.98 762.93 645.71L763.85 645.39C781.23 639.57 814.07 641.88 814.07 641.88C814.07 641.88 839.15 649.2 841.25 652.34C843.35 655.48 867.12 681.34 867.12 681.34C869.206 682.913 871.129 684.692 872.86 686.65C875.09 689.12 877.16 692.23 877.62 695.44Z" fill="#CA6B72"/>
<path opacity="0.1" d="M734.93 729.94C738.973 729.94 742.25 724.791 742.25 718.44C742.25 712.089 738.973 706.94 734.93 706.94C730.888 706.94 727.61 712.089 727.61 718.44C727.61 724.791 730.888 729.94 734.93 729.94Z" fill="white"/>
<path opacity="0.1" d="M765.25 650.49C765.25 650.49 759.25 659.69 752.91 671.49C752.906 671.52 752.906 671.55 752.91 671.58C751.22 674.72 749.5 678.03 747.86 681.42L747.79 681.58C747.79 681.58 744.32 678.83 741.59 676.15C741.59 676.01 741.68 675.86 741.73 675.72C745.5 664.4 751.79 650.65 760.85 646.56C761.54 646.25 762.26 645.95 763.03 645.68L765.25 650.49Z" fill="black"/>
<path opacity="0.1" d="M747.48 681.33C747.48 681.33 784.591 692.33 791.901 687.6C791.901 687.6 794.521 654.15 777.271 652.06C777.271 652.06 767.341 649.44 765.271 651.06C763.201 652.68 747.48 681.33 747.48 681.33Z" fill="#E6E6E6"/>
<path opacity="0.1" d="M795.56 656.76C795.56 656.76 802.88 684.46 808.11 684.99C813.34 685.52 866.11 684.46 864.03 680.8C861.95 677.14 838.94 653.63 838.94 653.63L795.56 656.76Z" fill="white"/>
<path d="M786.58 706.88C786.58 706.88 796.08 694.39 812.81 706.94C829.54 719.49 819.6 742.48 812.81 743C806.02 743.52 793 744.05 793 744.05C793 744.05 772.37 735.57 786.58 706.88Z" fill="#192534"/>
<path d="M885.25 710.06C884.554 708.086 883.456 706.278 882.026 704.75C880.596 703.222 878.864 702.007 876.94 701.182C875.017 700.357 872.943 699.94 870.85 699.957C868.757 699.973 866.69 700.424 864.78 701.28C862.912 702.161 861.142 703.237 859.5 704.49C844.61 715.65 853.5 736.12 859.5 736.59C861.67 736.75 864.56 736.92 867.37 737.07C870.247 737.223 873.12 736.706 875.764 735.56C878.407 734.414 880.748 732.671 882.603 730.467C884.459 728.263 885.777 725.658 886.455 722.858C887.133 720.058 887.152 717.139 886.51 714.33C886.172 712.884 885.751 711.458 885.25 710.06Z" fill="#192534"/>
<path opacity="0.1" d="M790.86 736.21C794.903 736.21 798.18 731.061 798.18 724.71C798.18 718.359 794.903 713.21 790.86 713.21C786.817 713.21 783.54 718.359 783.54 724.71C783.54 731.061 786.817 736.21 790.86 736.21Z" fill="white"/>
<path opacity="0.1" d="M811.24 702.76C811.24 702.76 810.24 687.6 826.4 693.87C842.56 700.14 832.15 706.94 832.15 706.94L811.24 702.76Z" fill="white"/>
<path opacity="0.1" d="M877.62 695.44V697.53L875.01 698.53L869.68 697.53C869.68 697.53 868.54 688.97 872.91 686.53C875.09 689.12 877.16 692.23 877.62 695.44Z" fill="white"/>
<path opacity="0.1" d="M877.62 695.54V699.62C877.62 699.62 809.62 704.32 802.36 704.32H802.3C798.54 702.32 794.78 701.43 791.62 702.76C790.658 703.158 789.753 703.682 788.93 704.32C788.69 704.51 788.46 704.71 788.24 704.91C787.243 705.823 786.381 706.874 785.68 708.03C781 715.6 782 727.32 782 727.32C768.41 731.5 754.3 720.53 754.3 720.53C751.74 712.85 749.35 707.84 747.16 704.53C745.16 701.53 743.34 700.06 741.72 699.34L737 694.94L737.23 692.44L775.16 720.02C775.16 720.02 778.82 696.5 787.16 698.07C795.5 699.64 812.25 699.64 812.25 699.64L877.62 695.54Z" fill="black"/>
<path d="M734.93 692.3C734.93 692.3 731.79 700.14 734.93 700.67C738.07 701.2 745.12 694.67 754.27 722.1C754.27 722.1 768.38 733.1 781.97 728.89C781.97 728.89 780.35 709.03 791.62 704.32C802.89 699.61 821.69 723.14 821.69 723.14V728.37L866.12 723.66C866.12 723.66 879.71 713.21 879.19 697.01L812.29 701.19C812.29 701.19 795.56 701.19 787.2 699.62C778.84 698.05 775.2 721.62 775.2 721.62L734.93 692.3Z" fill="#CA6B72"/>
<path d="M546.78 549.35H546.77C531.328 549.35 518.81 561.868 518.81 577.31V577.32C518.81 592.762 531.328 605.28 546.77 605.28H546.78C562.221 605.28 574.74 592.762 574.74 577.32V577.31C574.74 561.868 562.221 549.35 546.78 549.35Z" fill="#192534"/>
<path d="M532.13 649.28C535.88 645.99 539.69 642.64 542.39 638.45C544.87 634.61 546.33 630.22 547.7 625.86C551.613 613.4 554.983 600.784 557.81 588.01C542.42 585.66 530.93 572.07 515.88 568.08C515.52 567.98 504.01 637.14 503.17 643.46C502.48 648.68 496.52 673.61 503.31 673.75C506.94 673.83 514.52 664.75 517.2 662.36L532.13 649.28Z" fill="#3F3D56"/>
<path opacity="0.1" d="M532.13 649.28C535.88 645.99 539.69 642.64 542.39 638.45C544.87 634.61 546.33 630.22 547.7 625.86C551.613 613.4 554.983 600.784 557.81 588.01C542.42 585.66 530.93 572.07 515.88 568.08C515.52 567.98 504.01 637.14 503.17 643.46C502.48 648.68 496.52 673.61 503.31 673.75C506.94 673.83 514.52 664.75 517.2 662.36L532.13 649.28Z" fill="black"/>
<path d="M341.94 474.78C340.24 475.04 338.44 475.17 337.04 476.16C335.04 477.56 334.53 480.16 333.58 482.42C332.332 485.321 330.219 487.766 327.53 489.42C325.24 490.82 322.45 491.76 321.08 494.06C320.306 495.609 319.937 497.33 320.01 499.06C319.829 504.184 320.06 509.314 320.7 514.4C321.02 516.95 321.44 519.55 320.91 522.06C320.3 524.99 318.46 527.48 316.71 529.91C312.51 535.72 308.4 542.1 308.06 549.26C307.89 552.86 308.69 556.55 307.78 560.04C306.17 566.23 299.61 570.27 298.33 576.53C297.95 578.38 298.05 580.34 297.33 582.07C296.07 585.07 292.6 586.71 291.71 589.8C291.04 592.12 292.02 594.57 292.09 596.98C292.19 600.51 290.34 603.77 288.56 606.81L278.15 624.51C274.77 630.25 271.31 636.25 270.74 642.89C270.23 648.78 272.06 654.61 274.07 660.17C278.54 672.52 285.18 685.6 297.43 690.35C304.64 693.15 312.67 692.55 320.38 691.91C330.94 691.04 341.57 690.15 351.76 687.26C356.81 685.83 361.76 683.92 366.86 682.9C370.26 682.23 373.75 681.9 377.03 680.81C380.574 679.536 383.71 677.332 386.11 674.429C388.51 671.526 390.085 668.031 390.67 664.31C395.03 666.03 399.07 660.31 398.45 655.67C397.83 651.03 394.71 647.1 393.45 642.6C391.65 636.39 393.45 629.65 396.45 623.93C399.45 618.21 403.59 613.15 406.86 607.58C410.503 601.345 413.034 594.523 414.34 587.42C416.09 577.83 415.56 567.98 415.02 558.25L412.96 521.06C412.58 514.25 412.15 507.22 409.15 501.06C405.86 494.35 399.86 489.43 393.87 484.96C385.03 478.235 375.76 472.096 366.12 466.58C359.9 463.1 360.34 464.45 355.39 468.58C351.556 471.834 346.904 473.978 341.94 474.78Z" fill="#3F3D56"/>
<path d="M426 578.25C418.93 583.83 411.77 589.49 406.33 596.67C399.759 605.4 396.03 615.94 395.65 626.86C395.586 631.971 395.944 637.078 396.72 642.13C397.79 650.38 399.72 659.57 406.67 664.13C411.05 667 417.07 667.72 420.06 672.02C421 673.37 421.55 675.02 422.65 676.21C424.65 678.37 427.77 678.84 430.65 679C434.953 679.242 439.27 679.108 443.55 678.6C448.44 678.01 453.41 676.94 458.25 677.86C467.67 679.63 474.7 688.52 484.25 689.71C492.18 690.71 499.61 686.1 506.25 681.71C513.1 677.18 520.25 672.33 523.96 665C527.57 657.88 527.37 649.5 527.09 641.51C526.78 632.64 526.46 623.66 524.09 615.1C523.353 612.86 522.788 610.566 522.4 608.24C521.69 602.24 524.4 596.34 526.4 590.6C529.51 581.87 530.87 571.11 524.69 564.21C522.08 561.29 518.45 559.49 514.77 558.21C498.52 552.37 480.58 554.59 463.91 557.21C448 559.62 438.48 568.42 426 578.25Z" fill="#3F3D56"/>
<path d="M563.8 543.69C557.36 553.36 550.9 563.1 546.25 573.69C543.078 581.376 540.406 589.259 538.25 597.29C531.83 619.48 525.46 642.15 512.64 661.36C510.8 664.12 508.76 666.99 508.57 670.3C508.39 673.4 509.87 676.3 511.3 679.06C514.3 684.9 517.44 690.8 521.72 695.82C526 700.84 531.12 704.64 536.28 708.52C546.99 716.52 558.89 725 572.28 724.4C575.05 724.27 578.01 723.63 579.86 721.56C581.71 719.49 581.97 716.63 581.64 713.97C580.64 705.74 574.44 699.27 568.82 693.17C563.2 687.07 557.55 679.94 558 671.62C558.35 664.75 562.85 658.89 567.16 653.53C572.09 647.39 577.03 641.26 581.68 634.91C601.79 607.46 616.31 576.25 627.82 544.22C632.67 530.7 637.08 516.5 635.57 502.22C624.57 499.52 602.57 490.5 593.28 499.81C587.65 505.45 583.67 513.81 579.28 520.46L563.8 543.69Z" fill="#FBBEBE"/>
<path d="M656.68 449.8C649.711 461.955 644.258 474.919 640.44 488.4C639.51 491.66 638.68 495.1 639.39 498.4C640.16 501.94 642.57 504.85 644.39 507.97C646.21 511.09 647.49 515.04 645.84 518.26C638.04 518.87 630.31 516.74 622.77 514.63L599.13 508.03C597.171 507.653 595.334 506.802 593.78 505.55C591.04 502.96 591.25 498.61 591.78 494.89C596.41 464.43 611.28 436.35 616.85 406.06C617.66 401.69 618.51 396.85 621.99 394.06C631.99 386.16 654.63 392.85 659.81 404.29C665.6 416.99 663.23 438.39 656.68 449.8Z" fill="#7583CA"/>
<path d="M530.13 345.7C529.24 346.16 528.24 346.7 527.97 347.64C527.91 348.152 527.963 348.67 528.126 349.159C528.288 349.648 528.556 350.096 528.91 350.47L539 364.67C548.95 378.67 558.92 392.76 570.43 405.53C579.119 415.164 588.635 424.018 598.87 431.99C601.75 434.23 604.82 436.56 606.23 439.93C599.942 421.308 601.059 400.981 609.35 383.16C612.65 376.16 617.01 369.67 620.44 362.71C620.764 362.328 620.983 361.868 621.077 361.376C621.171 360.884 621.136 360.376 620.976 359.902C620.816 359.427 620.537 359.002 620.164 358.667C619.792 358.332 619.339 358.099 618.85 357.99C610.11 353.49 600.55 350.77 591.85 346.19C585.02 342.59 578.85 337.91 572.72 333.3C567.25 329.19 559.97 321.93 553.22 320.2C545.93 318.32 546.22 324.97 543.87 330.52C541.168 337.007 536.316 342.367 530.13 345.7Z" fill="#FBBEBE"/>
<path opacity="0.1" d="M530.13 345.7C529.24 346.16 528.24 346.7 527.97 347.64C527.91 348.152 527.963 348.67 528.126 349.159C528.288 349.648 528.556 350.096 528.91 350.47L539 364.67C548.95 378.67 558.92 392.76 570.43 405.53C579.119 415.164 588.635 424.018 598.87 431.99C601.75 434.23 604.82 436.56 606.23 439.93C599.942 421.308 601.059 400.981 609.35 383.16C612.65 376.16 617.01 369.67 620.44 362.71C620.764 362.328 620.983 361.868 621.077 361.376C621.171 360.884 621.136 360.376 620.976 359.902C620.816 359.427 620.537 359.002 620.164 358.667C619.792 358.332 619.339 358.099 618.85 357.99C610.11 353.49 600.55 350.77 591.85 346.19C585.02 342.59 578.85 337.91 572.72 333.3C567.25 329.19 559.97 321.93 553.22 320.2C545.93 318.32 546.22 324.97 543.87 330.52C541.168 337.007 536.316 342.367 530.13 345.7Z" fill="black"/>
<path d="M592 402.29C587.43 397.13 581.26 393.72 575.85 389.44C568.07 383.28 561.92 375.34 555.98 367.39C545.08 352.76 534.09 334.84 539.52 317.39C533.75 316.83 528.77 321.57 526.05 326.68C523.33 331.79 521.93 337.61 518.54 342.3C513.39 349.43 504.63 352.75 496.47 356.01C478.533 363.188 461.204 371.799 444.65 381.76C438 385.76 431.38 390.05 426.3 395.91C420.86 402.16 417.45 409.91 412.83 416.76C403.83 430.23 390.15 440.34 374.97 446.06C369.97 447.96 364.61 449.44 360.14 452.46C350.56 458.93 346.57 471.83 348.84 483.17C351.11 494.51 358.84 504.17 368.13 511.03C377.42 517.89 388 521.94 398.72 525.94C407.707 529.24 416.75 532.387 425.85 535.38C432.546 537.697 439.392 539.555 446.34 540.94C459.13 543.29 472.28 542.71 485.21 544.14C497.03 545.44 508.64 548.43 520.51 549.26C532.38 550.09 544.95 548.51 554.62 541.6C562.31 536.11 567.43 527.82 572.16 519.6C584.439 498.405 595.407 476.478 605 453.94C607.83 447.27 634.09 409.49 627.55 404.61C594.62 380.04 605.55 419.08 602.41 416.08C598.21 412.06 595.8 406.58 592 402.29Z" fill="#7583CA"/>
<path d="M551.21 379.69C544.14 365.47 539.36 350.25 534.61 335.11C533.3 330.91 531.98 326.37 533.39 322.21C535.09 317.21 540.53 312.94 538.93 307.93C526.21 311.93 511.44 318.2 508.93 331.31C508.38 334.17 508.48 337.22 507.15 339.8C504.56 344.86 497.96 345.94 492.35 346.8C476.03 349.41 459.81 355.99 448.63 368.16C446.75 370.16 444.98 372.43 442.63 373.93C440.93 374.932 439.122 375.737 437.24 376.33C426.3 380.26 415.05 385.16 408.01 394.41C404.38 399.17 402.06 404.88 398.01 409.3C392.53 415.3 384.46 418.3 378.53 423.89C374.53 427.61 371.68 432.33 369.04 437.1C358.88 455.46 351.43 476.99 356.82 497.28C359.63 507.89 365.82 517.34 369.15 527.8C373.74 542.05 373.29 558.3 381.9 570.55C387.33 578.25 395.73 583.34 404.33 587.18C423.466 595.694 444.489 599.078 465.33 597C473.058 596.101 480.735 594.806 488.33 593.12C506.46 589.38 524.78 585.31 541.25 576.85C569.34 562.42 589.55 536.63 608.85 511.63C612.52 506.87 616.22 502.07 618.85 496.63C621.42 491.44 622.97 485.82 624.7 480.3C630.55 461.69 638.78 443.16 638.01 423.68C638.041 421.347 637.581 419.034 636.66 416.89C635.88 415.29 634.66 413.89 633.97 412.28C632.75 409.4 633.3 406.07 632.44 403.06C630.05 394.66 619.01 393.06 610.27 393.13L607.47 442.42C607.04 449.82 606.25 458.03 600.74 462.99C598.383 465.018 595.441 466.242 592.341 466.485C589.241 466.728 586.144 465.976 583.5 464.34C577.62 460.53 576.79 453.88 576.83 447.51C576.89 439.51 576.24 432.18 573.69 424.51C568.41 408.6 558.63 394.64 551.21 379.69Z" fill="#192534"/>
<path d="M554.69 520.15C589.51 537.8 624.53 555.58 655.69 579.08C662.89 584.5 669.89 590.24 677.5 595.08C699.31 608.94 726.37 615.69 743.2 635.29C746.74 639.4 749.74 644.02 753.82 647.58C757.361 650.488 761.319 652.847 765.56 654.58C779.081 660.547 793.722 663.551 808.5 663.39C812.37 663.34 816.35 663.05 819.83 661.39C829.2 656.85 831.33 644.69 832.28 634.32C832.6 630.81 832.67 626.67 829.91 624.49C828.42 623.32 826.45 623.02 824.58 622.73C794.17 617.93 766.11 603.29 740.7 585.9C715.29 568.51 692 548.21 666.94 530.32C658.13 524.03 649.11 518.04 640.09 512.05L610.9 492.67C595.46 482.42 579.2 471.86 560.76 469.93C559.712 469.748 558.635 469.82 557.62 470.14C556 470.77 555.1 472.45 554.31 473.99C548.9 484.53 542.31 494.1 535.68 503.86C532.13 509.08 531.73 510.43 537.85 513.22C543.36 515.74 549.2 517.37 554.69 520.15Z" fill="#FBBEBE"/>
<path d="M623.11 811.38C623.508 811.38 623.89 811.222 624.171 810.941C624.452 810.659 624.61 810.278 624.61 809.88C624.61 809.482 624.452 809.101 624.171 808.819C623.89 808.538 623.508 808.38 623.11 808.38C622.713 808.38 622.331 808.538 622.05 808.819C621.768 809.101 621.61 809.482 621.61 809.88C621.61 810.278 621.768 810.659 622.05 810.941C622.331 811.222 622.713 811.38 623.11 811.38Z" fill="black"/>
<path d="M634.05 413.2C686.876 413.2 729.7 370.376 729.7 317.55C729.7 264.724 686.876 221.9 634.05 221.9C581.224 221.9 538.4 264.724 538.4 317.55C538.4 370.376 581.224 413.2 634.05 413.2Z" fill="#FBBEBE"/>
<path d="M558.87 354.85C560.57 346.26 570.43 341.92 579.16 341.34C587.994 340.865 596.797 342.726 604.683 346.736C612.569 350.746 619.259 356.762 624.08 364.18C626.102 358.818 627.466 353.231 628.14 347.54L644.14 348.73C645.926 349.006 647.752 348.841 649.46 348.25C651.52 347.33 652.79 345.25 653.86 343.25C660.86 330.18 665.54 314.14 678.68 307.25V325.25C682.278 324.55 685.666 323.033 688.585 320.815C691.503 318.597 693.872 315.739 695.51 312.46C696.412 317.443 697.847 322.314 699.79 326.99C700.11 327.77 700.56 328.63 701.37 328.83C701.766 328.859 702.163 328.803 702.535 328.667C702.907 328.531 703.247 328.317 703.53 328.04C709.657 323.39 715.2 318.018 720.04 312.04L739.04 344.98C750.018 317.26 750.617 286.508 740.729 258.381C730.841 230.254 711.129 206.643 685.22 191.89C680.827 189.359 676.243 187.176 671.51 185.36C659.14 180.7 645.81 179.21 632.62 178.31C613.87 177.03 594.08 177.08 577.62 186.07C568.77 190.9 561.42 198.02 554.32 205.18C544.72 214.84 535.12 225.05 530.01 237.68C526.48 246.4 525.27 255.85 524.2 265.19C523.55 270.84 522.95 276.68 524.56 282.13C525.68 285.9 527.79 289.29 529.21 292.96C531.57 299.06 531.94 305.72 532.85 312.2C534.869 326.52 539.546 340.337 546.64 352.94C548.14 355.61 550.06 358.45 553.05 359.13C556.04 359.81 559.63 356.51 558.05 353.91" fill="#192534"/>
<path d="M558.87 354.85C560.57 346.26 570.43 341.92 579.16 341.34C587.994 340.865 596.797 342.726 604.683 346.736C612.569 350.746 619.259 356.762 624.08 364.18C626.102 358.818 627.466 353.231 628.14 347.54L644.14 348.73C645.926 349.006 647.752 348.841 649.46 348.25C651.52 347.33 652.79 345.25 653.86 343.25C660.86 330.18 665.54 314.14 678.68 307.25V325.25C682.278 324.55 685.666 323.033 688.585 320.815C691.503 318.597 693.872 315.739 695.51 312.46C696.412 317.443 697.847 322.314 699.79 326.99C700.11 327.77 700.56 328.63 701.37 328.83C701.766 328.859 702.163 328.803 702.535 328.667C702.907 328.531 703.247 328.317 703.53 328.04C709.657 323.39 715.2 318.018 720.04 312.04L739.04 344.98C750.018 317.26 750.617 286.508 740.729 258.381C730.841 230.254 711.129 206.643 685.22 191.89C680.827 189.359 676.243 187.176 671.51 185.36C659.14 180.7 645.81 179.21 632.62 178.31C613.87 177.03 594.08 177.08 577.62 186.07C568.77 190.9 561.42 198.02 554.32 205.18C544.72 214.84 535.12 225.05 530.01 237.68C526.48 246.4 525.27 255.85 524.2 265.19C523.55 270.84 522.95 276.68 524.56 282.13C525.68 285.9 527.79 289.29 529.21 292.96C531.57 299.06 531.94 305.72 532.85 312.2C534.869 326.52 539.546 340.337 546.64 352.94C548.14 355.61 550.06 358.45 553.05 359.13C556.04 359.81 559.63 356.51 558.05 353.91" stroke="black" stroke-miterlimit="10"/>
<path d="M449.09 446.65C452.95 457.26 462.65 464.46 471.85 471.02L495.85 488.14C502.23 492.69 508.78 497.41 512.93 504.05C506.86 506.35 504.09 514.15 506.08 520.33C508.07 526.51 513.78 530.94 520 532.94C526.22 534.94 532.82 534.87 539.31 534.5C546.76 534.09 554.56 533.19 560.71 528.96L547.2 520.64C543.64 518.43 539.55 514.91 540.85 510.94L555.1 510.8C556.6 510.8 558.23 510.73 559.42 509.8C560.61 508.87 561.02 507.44 561.52 506.08C563.639 500.581 567.256 495.785 571.961 492.236C576.665 488.687 582.27 486.527 588.14 486C591.66 485.74 595.71 485.89 598.14 483.27C599.72 481.53 600.06 479.03 600.34 476.7C600.87 472.26 601.39 467.7 600.51 463.35C599.63 459 597.09 454.68 593.01 452.85C590.01 451.49 586.54 451.62 583.26 451.18C568.17 449.18 557.71 435.5 549.61 422.61C541.51 409.72 532.82 395.46 518.38 390.66C513.871 389.31 509.196 388.593 504.49 388.53C494.08 388.1 483.36 388.95 473.88 393.27C456.21 401.32 442.21 427.77 449.09 446.65Z" fill="#7583CA"/>
<path opacity="0.1" d="M739.13 327.18L720.13 294.24C715.293 300.22 709.749 305.593 703.62 310.24C703.339 310.52 703 310.737 702.627 310.875C702.255 311.013 701.857 311.069 701.46 311.04C700.65 310.84 700.2 309.98 699.88 309.2C697.937 304.52 696.502 299.646 695.6 294.66C693.964 297.941 691.595 300.802 688.677 303.021C685.759 305.241 682.369 306.76 678.77 307.46V289.46C665.63 296.37 660.99 312.41 653.95 325.46C652.88 327.46 651.61 329.51 649.55 330.46C647.843 331.051 646.016 331.216 644.23 330.94L628.23 329.75C627.556 335.441 626.192 341.028 624.17 346.39C619.349 338.972 612.659 332.955 604.773 328.946C596.887 324.936 588.084 323.075 579.25 323.55C570.52 324.13 560.66 328.47 558.96 337.06L558.11 336.12C559.72 338.73 556.11 342.03 553.11 341.35C550.11 340.67 548.2 337.83 546.7 335.16C539.625 322.543 534.968 308.716 532.97 294.39C532.06 287.91 531.69 281.25 529.33 275.15C527.91 271.48 525.8 268.09 524.68 264.32C524.68 264.19 524.61 264.07 524.58 263.94C524.49 264.69 524.4 265.44 524.32 266.19C523.67 271.85 523.07 277.68 524.68 283.19C525.8 286.96 527.91 290.35 529.33 294.01C531.69 300.12 532.06 306.77 532.97 313.26C534.966 327.584 539.623 341.408 546.7 354.02C548.2 356.69 550.12 359.54 553.11 360.22C556.1 360.9 559.69 357.6 558.11 354.99L558.96 355.92C560.66 347.34 570.52 342.99 579.25 342.42C588.084 341.941 596.887 343.799 604.774 347.807C612.66 351.815 619.35 357.832 624.17 365.25C626.194 359.892 627.557 354.308 628.23 348.62L644.23 349.8C646.016 350.079 647.843 349.915 649.55 349.32C651.61 348.4 652.88 346.32 653.95 344.32C660.95 331.24 665.63 315.21 678.77 308.32V326.32C682.369 325.62 685.759 324.101 688.677 321.881C691.595 319.662 693.964 316.801 695.6 313.52C696.504 318.505 697.939 323.38 699.88 328.06C700.2 328.83 700.65 329.7 701.46 329.89C701.856 329.923 702.254 329.87 702.627 329.734C703.001 329.597 703.339 329.381 703.62 329.1C709.749 324.453 715.293 319.08 720.13 313.1L739.13 346.04C745.982 328.561 748.802 309.76 747.38 291.04C746.461 303.433 743.68 315.616 739.13 327.18Z" fill="black"/>
</g>
<defs>
<clipPath id="clip0_551_332">
<rect width="1094" height="811.38" fill="white"/>
</clipPath>
</defs>
</svg>
