<svg width="884" height="673" viewBox="0 0 884 673" fill="none" xmlns="http://www.w3.org/2000/svg">
<g clip-path="url(#clip0_483_10)">
<path d="M883.78 606.922H0V672.25H883.78V606.922Z" fill="#A9AABC"/>
<path d="M882.555 607.048H0V604.867H882.949L882.555 607.048Z" fill="#3F3D56"/>
<path d="M693.188 251.187V444.369H190.811V251.187C190.81 187.078 215.322 125.395 259.326 78.772C303.33 32.1493 363.495 4.11604 427.498 0.414359C432.294 0.134734 437.127 -0.00336442 441.999 6.22253e-05C444.775 6.22253e-05 447.541 0.0414686 450.286 0.145058C514.021 2.16191 574.583 28.4252 619.613 73.5746C620.97 74.9316 622.306 76.2989 623.642 77.6869C668.294 124.412 693.204 186.558 693.188 251.187Z" fill="#ACB8FF"/>
<path d="M450.286 0.145104V444.369H427.498V0.414359C432.294 0.134734 437.127 -0.00336442 441.999 6.22253e-05C444.775 6.22253e-05 447.541 0.0414744 450.286 0.145104Z" fill="#444655"/>
<path d="M642.96 100.475H241.038C247.021 92.5037 253.472 84.8943 260.356 77.687H623.642C630.527 84.8943 636.977 92.5037 642.96 100.475Z" fill="#444655"/>
<path d="M654.955 165.732H476.907V467.157H654.955V165.732Z" fill="#A9AABC"/>
<path d="M538.997 216.655H512.065V243.587H538.997V216.655Z" fill="#E6E6E6"/>
<path d="M582.388 216.655H555.455V243.587H582.388V216.655Z" fill="#E6E6E6"/>
<path d="M625.778 216.655H598.846V243.587H625.778V216.655Z" fill="#E6E6E6"/>
<path d="M539.745 278H512.813V304.932H539.745V278Z" fill="#E6E6E6"/>
<path d="M583.136 278H556.204V304.932H583.136V278Z" fill="#E6E6E6"/>
<path d="M626.526 278H599.594V304.932H626.526V278Z" fill="#E6E6E6"/>
<path d="M540.493 339.345H513.561V366.277H540.493V339.345Z" fill="#E6E6E6"/>
<path d="M583.884 339.345H556.952V366.277H583.884V339.345Z" fill="#E6E6E6"/>
<path d="M627.274 339.345H600.342V366.277H627.274V339.345Z" fill="#E6E6E6"/>
<path d="M541.241 400.69H514.309V427.622H541.241V400.69Z" fill="#E6E6E6"/>
<path d="M584.632 400.69H557.7V427.622H584.632V400.69Z" fill="#E6E6E6"/>
<path d="M628.022 400.69H601.09V427.622H628.022V400.69Z" fill="#E6E6E6"/>
<path d="M541.241 400.69H514.309V427.622H541.241V400.69Z" fill="#E6E6E6"/>
<path d="M584.632 400.69H557.7V427.622H584.632V400.69Z" fill="#E6E6E6"/>
<path d="M628.022 400.69H601.09V427.622H628.022V400.69Z" fill="#E6E6E6"/>
<path d="M250.528 383.079C271.028 383.079 287.647 366.46 287.647 345.96C287.647 325.46 271.028 308.841 250.528 308.841C230.027 308.841 213.408 325.46 213.408 345.96C213.408 366.46 230.027 383.079 250.528 383.079Z" fill="#368885"/>
<path d="M250.63 345.96H250.732L252.568 451.198H248.693L250.63 345.96Z" fill="#795A00"/>
<path d="M257.388 403.283L256.533 401.659L250.397 404.889L251.252 406.513L257.388 403.283Z" fill="#795A00"/>
<path d="M359.657 347.61C390.832 347.61 416.104 322.339 416.104 291.164C416.104 259.99 390.832 234.718 359.657 234.718C328.483 234.718 303.211 259.99 303.211 291.164C303.211 322.339 328.483 347.61 359.657 347.61Z" fill="#368885"/>
<path d="M359.812 291.165H359.967L362.758 451.199H356.866L359.812 291.165Z" fill="#795A00"/>
<path d="M370.09 378.334L368.79 375.864L359.459 380.777L360.759 383.247L370.09 378.334Z" fill="#795A00"/>
<path d="M243.234 237.266L252.77 229.639C245.362 228.822 242.319 232.862 241.073 236.059C235.286 233.656 228.986 236.806 228.986 236.806L248.064 243.732C247.102 241.161 245.426 238.918 243.234 237.266Z" fill="#444655"/>
<path d="M343.71 175.116L353.245 167.49C345.838 166.672 342.794 170.712 341.548 173.91C335.761 171.507 329.461 174.656 329.461 174.656L348.54 181.583C347.577 179.012 345.902 176.769 343.71 175.116Z" fill="#444655"/>
<path d="M305.384 234.158L314.92 226.532C307.512 225.714 304.468 229.754 303.223 232.952C297.435 230.549 291.135 233.698 291.135 233.698L310.214 240.625C309.252 238.054 307.576 235.811 305.384 234.158Z" fill="#444655"/>
<path d="M719.601 421.581H164.397V467.157H719.601V421.581Z" fill="#444655"/>
<path d="M81.4728 540.218C81.4728 540.218 -30.833 488.518 8.61995 452.666C48.0729 416.815 81.4728 540.218 81.4728 540.218Z" fill="#368885"/>
<path d="M79.5181 552.282C79.5181 552.282 27.8982 382.677 103.91 390.788C179.923 398.899 79.5181 552.282 79.5181 552.282Z" fill="#368885"/>
<path d="M41.8815 537.24L44.048 565.612L44.0824 566.102C44.0804 570.532 44.3042 574.96 44.753 579.368C47.6934 608.306 60.3316 621.495 75.102 621.495C89.8724 621.495 101.96 608.306 104.901 579.368C105.35 574.96 105.573 570.532 105.571 566.102L105.589 565.706L105.597 565.612L107.772 537.24H41.8815Z" fill="#D0A617"/>
<path d="M105.597 565.611L105.588 565.706L105.571 566.101C105.573 570.532 105.349 574.96 104.901 579.367H44.753C44.3042 574.96 44.0804 570.532 44.0824 566.101L44.048 565.611H105.597Z" fill="#D0A617"/>
<path d="M832.895 540.218C832.895 540.218 720.589 488.518 760.042 452.666C799.495 416.815 832.895 540.218 832.895 540.218Z" fill="#368885"/>
<path d="M830.94 552.282C830.94 552.282 779.32 382.677 855.332 390.788C931.345 398.899 830.94 552.282 830.94 552.282Z" fill="#368885"/>
<path d="M793.303 537.24L795.47 565.612L795.504 566.102C795.502 570.532 795.726 574.96 796.175 579.368C799.115 608.306 811.753 621.495 826.524 621.495C841.294 621.495 853.382 608.306 856.322 579.368C856.771 574.96 856.995 570.532 856.993 566.102L857.01 565.706L857.019 565.612L859.194 537.24H793.303Z" fill="#D0A617"/>
<path d="M857.019 565.611L857.01 565.706L856.993 566.101C856.995 570.532 856.771 574.96 856.322 579.367H796.175C795.726 574.96 795.502 570.532 795.504 566.101L795.47 565.611H857.019Z" fill="#D0A617"/>
<path d="M683.781 642.928L676.418 643.793C670.602 647.3 663.776 648.62 656.216 648.351C655.161 648.319 654.132 648.012 653.232 647.461C652.332 646.909 651.591 646.132 651.084 645.206C650.644 644.394 650.397 643.491 650.363 642.567C650.329 641.644 650.508 640.725 650.888 639.883C651.267 639.04 651.835 638.296 652.548 637.709C653.262 637.122 654.101 636.708 655.001 636.498L660.596 635.195L674.096 621.992L682.24 607.252L694.07 608.609L696.533 627.331C696.845 631.077 695.69 634.798 693.311 637.708C690.931 640.618 687.514 642.49 683.781 642.928Z" fill="#FFB8B8"/>
<path d="M569.107 633.457L561.891 635.155C556.512 639.301 549.881 641.39 542.339 641.984C541.287 642.073 540.23 641.886 539.273 641.44C538.316 640.995 537.492 640.307 536.882 639.445C536.353 638.688 536.005 637.819 535.866 636.905C535.727 635.992 535.8 635.059 536.081 634.179C536.361 633.298 536.841 632.495 537.483 631.83C538.125 631.166 538.912 630.658 539.782 630.347L545.191 628.415L557.099 613.76L563.511 598.188H575.419L579.998 616.508C580.736 620.194 580.012 624.022 577.98 627.184C575.948 630.347 572.766 632.596 569.107 633.457Z" fill="#FFB8B8"/>
<path d="M563.191 599.225L576.657 601.296L597.891 494.088L634.663 431.421L679.204 613.726L695.777 616.833C693.919 514.17 702.989 384.923 682.311 369.271L592.194 379.63L552.833 485.284L563.191 599.225Z" fill="#2F2E41"/>
<path d="M628.448 209.754C645.611 209.754 659.523 195.842 659.523 178.68C659.523 161.518 645.611 147.605 628.448 147.605C611.286 147.605 597.374 161.518 597.374 178.68C597.374 195.842 611.286 209.754 628.448 209.754Z" fill="#FFB8B8"/>
<path d="M671.953 226.328L634.663 232.543L625.341 199.396L652.272 191.11L671.953 226.328Z" fill="#FFB8B8"/>
<path d="M687.491 373.415L588.051 382.737C596.023 355.017 603.327 327.394 597.374 299.871C589.813 275.3 597.11 260.688 617.054 249.116L630.52 219.077L666.774 214.934C676.375 230.37 680.302 248.667 677.882 266.683C672.716 305.861 674.111 342.216 687.491 373.415Z" fill="#7583CA"/>
<path d="M627.749 141.979C617.378 144.348 605.574 147.705 604.912 150.826C594.244 153.514 586.191 159.953 584.547 169.77C584.41 170.619 584.46 171.487 584.695 172.314C584.929 173.141 585.342 173.906 585.905 174.556C586.467 175.207 587.165 175.725 587.949 176.076C588.734 176.428 589.586 176.602 590.445 176.589C596.247 176.514 604.957 175.958 610.708 173.556C627.415 184.321 630.219 212.319 622.923 231.377L634.404 230.324L646.282 195.553L649.316 228.957L675.516 225.493L672.141 182.896C671.104 172.857 667.688 163.209 662.175 154.754C661.602 153.905 660.976 153.094 660.3 152.325C656.314 147.822 651.183 144.482 645.452 142.661C639.721 140.839 633.603 140.603 627.749 141.979Z" fill="#2F2E41"/>
<path d="M561.945 653.612C561.888 654.119 561.939 654.632 562.093 655.119C562.247 655.605 562.502 656.053 562.84 656.435C563.178 656.817 563.593 657.124 564.057 657.335C564.521 657.547 565.024 657.659 565.534 657.664L577.187 657.784C577.815 657.741 578.402 657.46 578.831 657C579.26 656.54 579.499 655.934 579.499 655.305C579.499 654.809 579.35 654.323 579.072 653.912C578.793 653.501 578.398 653.183 577.937 652.998L574.499 651.623L569.499 644.623H565.499C563.535 647.242 562.308 650.339 561.947 653.592L561.945 653.612Z" fill="#FFB8B8"/>
<path d="M534.053 653.612C534.11 654.119 534.059 654.632 533.905 655.119C533.751 655.605 533.496 656.053 533.158 656.435C532.82 656.817 532.405 657.124 531.941 657.335C531.477 657.547 530.974 657.659 530.464 657.664L518.811 657.784C518.184 657.741 517.596 657.46 517.167 657C516.738 656.54 516.499 655.934 516.499 655.305C516.499 654.809 516.648 654.323 516.926 653.912C517.205 653.501 517.6 653.183 518.061 652.998L521.499 651.623L526.499 644.623H530.499C532.463 647.242 533.69 650.339 534.051 653.592L534.053 653.612Z" fill="#FFB8B8"/>
<path d="M525.499 644.623H531.499L552.499 553.624L563.499 645.623H570.499L579.999 527.124L531.499 526.624L525.499 644.623Z" fill="#3F3D56"/>
<path d="M498.499 477.624H506.499V458.624L508.319 454.985C508.684 454.254 508.872 453.448 508.866 452.631C508.861 451.815 508.662 451.011 508.287 450.285C507.912 449.56 507.371 448.934 506.708 448.457C506.044 447.98 505.278 447.667 504.471 447.543C503.732 447.43 502.978 447.477 502.259 447.682C501.54 447.887 500.875 448.246 500.308 448.732C499.74 449.219 499.285 449.822 498.973 450.501C498.661 451.181 498.499 451.919 498.499 452.666V477.624Z" fill="#FFB8B8"/>
<path d="M545.999 430.624C556.216 430.624 564.499 422.342 564.499 412.124C564.499 401.907 556.216 393.625 545.999 393.625C535.782 393.625 527.499 401.907 527.499 412.124C527.499 422.342 535.782 430.624 545.999 430.624Z" fill="#FFB8B8"/>
<path d="M538.499 443.625H557.499V421.625H538.499V443.625Z" fill="#FFB8B8"/>
<path d="M529.499 529.624C546.317 540.002 564.097 538.988 582.499 530.624L578.499 437.625L557.499 436.625L535.499 439.624L524.499 448.624L529.499 529.624Z" fill="#CA6B72"/>
<path d="M509.499 496.624L531.499 479.624L524.499 448.625L511.499 472.624L507.499 468.624L495.499 477.624L509.499 496.624Z" fill="#CA6B72"/>
<path d="M607.155 439.221L600.158 443.099L590.947 426.481L587.591 424.18C586.918 423.718 586.363 423.104 585.972 422.387C585.581 421.67 585.365 420.87 585.341 420.054C585.318 419.238 585.487 418.428 585.836 417.689C586.185 416.951 586.704 416.306 587.35 415.806C587.941 415.348 588.623 415.024 589.352 414.855C590.08 414.686 590.835 414.677 591.568 414.828C592.3 414.978 592.99 415.285 593.592 415.728C594.195 416.171 594.694 416.738 595.056 417.392L597.945 422.603L607.155 439.221Z" fill="#FFB8B8"/>
<path d="M567.999 467.124L594.55 453.029L608.499 445.624L610.499 433.624L601.499 424.625L590.499 431.624L591.499 439.624L578.499 437.624L567.999 467.124Z" fill="#CA6B72"/>
<path d="M549.999 427.125C562.149 427.125 571.999 417.275 571.999 405.125C571.999 392.975 562.149 383.125 549.999 383.125C537.849 383.125 527.999 392.975 527.999 405.125C527.999 417.275 537.849 427.125 549.999 427.125Z" fill="#2F2E41"/>
<path d="M561.999 390.125C567.522 390.125 571.999 385.648 571.999 380.125C571.999 374.602 567.522 370.125 561.999 370.125C556.476 370.125 551.999 374.602 551.999 380.125C551.999 385.648 556.476 390.125 561.999 390.125Z" fill="#2F2E41"/>
<path d="M561.514 388.485C563.497 389.52 565.769 389.86 567.968 389.452C570.166 389.043 572.164 387.909 573.642 386.231C575.121 384.553 575.994 382.427 576.122 380.195C576.25 377.962 575.625 375.751 574.349 373.915C575.505 374.785 576.458 375.895 577.143 377.17C577.828 378.444 578.229 379.852 578.316 381.297C578.404 382.741 578.177 384.187 577.651 385.535C577.125 386.883 576.312 388.1 575.27 389.104C574.227 390.107 572.979 390.872 571.612 391.345C570.244 391.819 568.791 391.99 567.351 391.847C565.911 391.703 564.52 391.249 563.273 390.516C562.025 389.782 560.952 388.786 560.128 387.597C560.565 387.931 561.029 388.228 561.514 388.485Z" fill="#2F2E41"/>
<path d="M623.269 404.489L623.956 428.537C624.051 431.852 622.886 435.079 620.696 437.57C618.506 440.06 615.454 441.628 612.155 441.958C610.041 442.169 607.908 441.864 605.939 441.069C603.969 440.273 602.223 439.011 600.849 437.391C599.475 435.771 598.516 433.841 598.053 431.768C597.59 429.695 597.638 427.541 598.192 425.491L603.588 405.525L619.126 320.587L618.09 270.868L651.237 269.832L645.022 325.767L623.269 404.489Z" fill="#FFB8B8"/>
<path d="M653.308 275.012C641.299 270.437 628.028 270.437 616.018 275.012L618.09 233.579C618.09 229.183 619.836 224.968 622.944 221.86C626.052 218.751 630.268 217.005 634.663 217.005C639.059 217.005 643.274 218.751 646.382 221.86C649.49 224.968 651.237 229.183 651.237 233.579L653.308 275.012Z" fill="#7583CA"/>
</g>
<defs>
<clipPath id="clip0_483_10">
<rect width="883.78" height="672.25" fill="white"/>
</clipPath>
</defs>
</svg>
