<svg width="97" height="97" viewBox="0 0 97 97" fill="none" xmlns="http://www.w3.org/2000/svg">
<path d="M39.9213 57.1979C43.1592 55.4239 45.4525 53.8195 47.0055 51.5357M28.6887 89.9913C36.8358 94.0885 51.0086 97.2785 57.0923 92.8891M57.0923 92.8891C58.6265 91.7821 59.6463 89.0832 59.9252 87.0939C61.3101 77.2165 44.3839 73.0022 31.9201 64.9685C31.9201 64.9685 8.23705 50.8314 3.45336 36.5217C-2.29053 19.3396 9.42059 1.37036 30.9969 2.01695C70.5425 3.20203 54.5394 37.3114 54.5394 37.3114C54.5394 37.3114 58.7272 42.0735 56.6936 44.2915C54.8991 46.2487 49.3076 45.0821 49.3076 45.0821C48.8846 47.8216 48.144 49.8613 47.0055 51.5357M57.0923 92.8891C74.2688 85.0009 86.5454 70.2369 85.7761 60.4912C85.0067 50.7455 72.5429 42.9753 59.3097 54.3014C59.3097 54.3014 53.7109 54.9366 53.0009 57.5938C52.591 59.1277 54.3857 61.4131 54.3857 61.4131C54.0379 62.6371 53.8454 63.8362 53.835 64.9685M59.3097 72.2124C55.3921 71.1276 53.8041 68.3443 53.835 64.9685M47.0055 51.5357C42.7318 51.025 40.64 49.3599 38.3828 46.2677M53.835 64.9685C56.4981 65.8593 58.1046 66.0953 61.4639 65.3641M89.3152 53.6429C91.1617 55.7501 102.394 35.4685 87.0071 29.2786C71.6196 23.0888 63.7721 34.2832 67.3112 38.4975C70.8503 42.7119 76.0252 39.8104 80.8521 42.1851C86.8532 45.1375 87.4687 51.5357 89.3152 53.6429Z" stroke="#7583CA" stroke-width="4" stroke-linecap="round"/>
<mask id="path-2-inside-1_445_147" fill="white">
<ellipse cx="2.59208" cy="3.86615" rx="2.59208" ry="3.86615" transform="matrix(0.974434 0.224675 -0.300233 0.953866 42.2495 22.6382)"/>
</mask>
<ellipse cx="2.59208" cy="3.86615" rx="2.59208" ry="3.86615" transform="matrix(0.974434 0.224675 -0.300233 0.953866 42.2495 22.6382)" fill="#7583CA"/>
<path d="M46.1404 27.4907L42.2426 26.592C42.1275 26.9578 41.9688 27.0923 42.0111 27.0566C42.0402 27.0321 42.1843 26.9172 42.4642 26.8265C42.7637 26.7295 43.1892 26.6733 43.6547 26.7807L42.4538 30.5961L41.2529 34.4116C43.6487 34.964 45.7966 33.9378 47.1485 32.799C48.5251 31.6394 49.5122 30.0604 50.0381 28.3894L46.1404 27.4907ZM42.4538 30.5961L43.6547 26.7807C44.1202 26.888 44.4552 27.1195 44.6572 27.3322C44.8461 27.531 44.9032 27.6922 44.914 27.7259C44.9296 27.775 44.8713 27.5905 44.9865 27.2247L41.0887 26.326L37.191 25.4273C36.6651 27.0982 36.5918 28.8879 37.1015 30.4825C37.6021 32.0484 38.857 33.8592 41.2529 34.4116L42.4538 30.5961ZM41.0887 26.326L44.9865 27.2247C45.1016 26.8589 45.2603 26.7244 45.218 26.7601C45.1889 26.7846 45.0448 26.8995 44.7649 26.9902C44.4654 27.0872 44.0399 27.1434 43.5744 27.036L44.7753 23.2206L45.9762 19.4051C43.5804 18.8527 41.4325 19.8789 40.0806 21.0177C38.704 22.1773 37.7169 23.7564 37.191 25.4273L41.0887 26.326ZM44.7753 23.2206L43.5744 27.036C43.1089 26.9287 42.7739 26.6972 42.5719 26.4845C42.383 26.2857 42.3259 26.1245 42.3151 26.0908C42.2994 26.0417 42.3578 26.2262 42.2426 26.592L46.1404 27.4907L50.0381 28.3894C50.564 26.7185 50.6373 24.9288 50.1276 23.3342C49.627 21.7683 48.3721 19.9575 45.9762 19.4051L44.7753 23.2206Z" fill="#7583CA" mask="url(#path-2-inside-1_445_147)"/>
<mask id="path-4-inside-2_445_147" fill="white">
<ellipse cx="1.81032" cy="2.2974" rx="1.81032" ry="2.2974" transform="matrix(0.943112 0.332476 -0.433643 0.901085 65.1491 56.0137)"/>
</mask>
<ellipse cx="1.81032" cy="2.2974" rx="1.81032" ry="2.2974" transform="matrix(0.943112 0.332476 -0.433643 0.901085 65.1491 56.0137)" fill="#7583CA"/>
<path d="M67.5675 59.2876L63.795 57.9577C63.8796 57.782 64.0711 57.5182 64.4735 57.2997C64.8834 57.0771 65.6952 56.8331 66.5985 57.1515L64.8639 60.7559L63.1293 64.3602C66.9439 65.7049 70.2396 62.9039 71.3399 60.6175L67.5675 59.2876ZM64.8639 60.7559L66.5985 57.1515C67.5018 57.47 67.8773 58.1326 67.9851 58.5377C68.0909 58.9353 68.0098 59.238 67.9253 59.4137L64.1528 58.0838L60.3804 56.7539C59.2801 59.0403 59.3148 63.0155 63.1293 64.3602L64.8639 60.7559ZM64.1528 58.0838L67.9253 59.4137C67.8407 59.5895 67.6492 59.8532 67.2468 60.0717C66.8369 60.2943 66.0252 60.5383 65.1218 60.2199L66.8564 56.6156L68.591 53.0112C64.7765 51.6665 61.4807 54.4675 60.3804 56.7539L64.1528 58.0838ZM66.8564 56.6156L65.1218 60.2199C64.2185 59.9015 63.8431 59.2389 63.7352 58.8337C63.6294 58.4361 63.7105 58.1334 63.795 57.9577L67.5675 59.2876L71.3399 60.6175C72.4402 58.3311 72.4055 54.356 68.591 53.0112L66.8564 56.6156Z" fill="#7583CA" mask="url(#path-4-inside-2_445_147)"/>
<mask id="path-6-inside-3_445_147" fill="white">
<ellipse cx="2.43056" cy="2.17922" rx="2.43056" ry="2.17922" transform="matrix(0.941929 0.335813 -0.43761 0.899165 75.5517 31.0845)"/>
</mask>
<ellipse cx="2.43056" cy="2.17922" rx="2.43056" ry="2.17922" transform="matrix(0.941929 0.335813 -0.43761 0.899165 75.5517 31.0845)" fill="#7583CA"/>
<path d="M79.1769 34.6764L75.4092 33.3331C75.6953 32.7453 76.2017 32.3958 76.6201 32.2483C77.0293 32.104 77.4043 32.1232 77.6843 32.223L75.9338 35.8196L74.1834 39.4163C77.1313 40.4673 81.2764 39.4474 82.9446 36.0196L79.1769 34.6764ZM75.9338 35.8196L77.6843 32.223C77.9642 32.3228 78.2443 32.5372 78.4128 32.8874C78.5851 33.2455 78.6519 33.7994 78.3658 34.3872L74.5981 33.0439L70.8304 31.7007C69.1621 35.1284 71.2355 38.3653 74.1834 39.4163L75.9338 35.8196ZM74.5981 33.0439L78.3658 34.3872C78.0797 34.975 77.5732 35.3246 77.1548 35.4721C76.7457 35.6163 76.3707 35.5972 76.0907 35.4973L77.8411 31.9007L79.5916 28.304C76.6436 27.253 72.4986 28.273 70.8304 31.7007L74.5981 33.0439ZM77.8411 31.9007L76.0907 35.4973C75.8107 35.3975 75.5307 35.1831 75.3622 34.833C75.1899 34.4748 75.1231 33.921 75.4092 33.3331L79.1769 34.6764L82.9446 36.0196C84.6128 32.5919 82.5395 29.355 79.5916 28.304L77.8411 31.9007Z" fill="#7583CA" mask="url(#path-6-inside-3_445_147)"/>
<mask id="path-8-inside-4_445_147" fill="white">
<ellipse cx="2.30524" cy="2.06685" rx="2.30524" ry="2.06685" transform="matrix(0.941929 0.335813 -0.43761 0.899165 86.8156 35.7432)"/>
</mask>
<ellipse cx="2.30524" cy="2.06685" rx="2.30524" ry="2.06685" transform="matrix(0.941929 0.335813 -0.43761 0.899165 86.8156 35.7432)" fill="#7583CA"/>
<path d="M90.2539 39.1499L86.4862 37.8066C86.7859 37.1909 87.3178 36.8208 87.7665 36.6626C88.2059 36.5077 88.6159 36.5261 88.9285 36.6375L87.1781 40.2342L85.4276 43.8308C88.3104 44.8586 92.3805 43.865 94.0216 40.4931L90.2539 39.1499ZM87.1781 40.2342L88.9285 36.6375C89.2411 36.7489 89.5451 36.9852 89.7261 37.3613C89.9109 37.7453 89.9785 38.3291 89.6789 38.9449L85.9112 37.6016L82.1434 36.2584C80.5024 39.6303 82.5449 42.8031 85.4276 43.8308L87.1781 40.2342ZM85.9112 37.6016L89.6789 38.9449C89.3792 39.5606 88.8473 39.9307 88.3986 40.0888C87.9592 40.2437 87.5491 40.2254 87.2366 40.114L88.987 36.5173L90.7374 32.9206C87.8547 31.8929 83.7845 32.8864 82.1434 36.2584L85.9112 37.6016ZM88.987 36.5173L87.2366 40.114C86.924 40.0025 86.62 39.7663 86.439 39.3902C86.2542 39.0062 86.1865 38.4224 86.4862 37.8066L90.2539 39.1499L94.0216 40.4931C95.6627 37.1212 93.6202 33.9484 90.7374 32.9206L88.987 36.5173Z" fill="#7583CA" mask="url(#path-8-inside-4_445_147)"/>
<mask id="path-10-inside-5_445_147" fill="white">
<ellipse cx="2.13507" cy="1.91429" rx="2.13507" ry="1.91429" transform="matrix(0.941929 0.335813 -0.43761 0.899165 81.4504 33.3833)"/>
</mask>
<ellipse cx="2.13507" cy="1.91429" rx="2.13507" ry="1.91429" transform="matrix(0.941929 0.335813 -0.43761 0.899165 81.4504 33.3833)" fill="#7583CA"/>
<path d="M84.6349 36.5385L80.8672 35.1953C81.1853 34.5416 81.7518 34.1437 82.2416 33.971C82.7221 33.8016 83.1797 33.8189 83.5365 33.9461L81.7861 37.5428L80.0356 41.1395C82.8299 42.1356 86.7984 41.178 88.4026 37.8818L84.6349 36.5385ZM81.7861 37.5428L83.5365 33.9461C83.8933 34.0734 84.23 34.3392 84.4279 34.7505C84.6296 35.1696 84.6985 35.7942 84.3804 36.4478L80.6127 35.1046L76.845 33.7613C75.2408 37.0575 77.2414 40.1433 80.0356 41.1395L81.7861 37.5428ZM80.6127 35.1046L84.3804 36.4478C84.0623 37.1014 83.4957 37.4994 83.006 37.6721C82.5255 37.8414 82.0679 37.8242 81.7111 37.6969L83.4615 34.1003L85.2119 30.5036C82.4177 29.5074 78.4492 30.4651 76.845 33.7613L80.6127 35.1046ZM83.4615 34.1003L81.7111 37.6969C81.3542 37.5697 81.0176 37.3039 80.8197 36.8926C80.618 36.4734 80.549 35.8489 80.8672 35.1953L84.6349 36.5385L88.4026 37.8818C90.0068 34.5856 88.0062 31.4998 85.2119 30.5036L83.4615 34.1003Z" fill="#7583CA" mask="url(#path-10-inside-5_445_147)"/>
</svg>
