<svg width="1098" height="791" viewBox="0 0 1098 791" fill="none" xmlns="http://www.w3.org/2000/svg">
<g clip-path="url(#clip0_512_561)">
<path d="M335.793 366.775H194.572V535.109H335.793V366.775Z" fill="#CCCCCC"/>
<path d="M122.678 788.294H50.7842L43.0813 722.603H130.381L122.678 788.294Z" fill="#BFA5A6"/>
<path d="M267.044 740.711L264.618 776.068C264.508 777.669 264.721 779.276 265.241 780.781C265.762 782.287 266.578 783.657 267.636 784.799C268.694 785.94 269.968 786.828 271.374 787.401C272.78 787.975 274.285 788.221 275.787 788.124L292.824 787.024C293.613 786.973 294.382 786.737 295.076 786.334C295.771 785.93 296.373 785.368 296.84 784.688C297.308 784.008 297.629 783.227 297.782 782.4C297.934 781.573 297.914 780.72 297.722 779.902L288.265 739.58L267.044 740.711Z" fill="#E6E6E6"/>
<path d="M409.543 761.619C429.593 766.619 443.916 773.726 453.325 783.345C456.676 786.744 461.06 788.747 465.68 788.99C471.581 789.321 476.406 788.616 480.033 786.889C480.961 786.453 481.764 785.759 482.357 784.881C482.949 784.002 483.311 782.971 483.403 781.893C483.513 780.799 483.346 779.692 482.92 778.69C482.493 777.687 481.823 776.824 480.978 776.191L433.426 740.123L413.228 748.736L408.516 753.759C408.006 754.303 407.621 754.966 407.392 755.695C407.162 756.424 407.095 757.2 407.194 757.962C407.294 758.724 407.558 759.45 407.965 760.085C408.373 760.72 408.913 761.245 409.543 761.619Z" fill="#E6E6E6"/>
<path d="M347.839 184.338L211.917 182.997C212.259 161.893 216.865 141.169 226.933 122.624C233.546 110.445 233.403 97.1898 231.81 86.0228C229.35 68.7898 235.069 51.1579 247.777 40.1879C257.488 31.7899 269.744 27.467 282.238 28.0332L284.877 28.1504C293.474 28.5313 301.844 31.2084 309.217 35.9359C316.591 40.6634 322.732 47.2898 327.077 55.2068C331.493 63.6584 333.274 73.3881 332.163 82.9896C331.301 92.0239 333.363 101.15 338.185 110.363C346.504 130.594 348.305 156.482 347.839 184.338Z" fill="#2F2E41"/>
<path d="M438.779 742.004L412.102 749.422L282.2 447.741L290.319 742.004H263.643C235.138 603.561 183.673 443.784 206.811 393.34L344.832 384.685L438.779 742.004Z" fill="#CA6B72"/>
<path d="M281.041 133.697C300.898 133.697 316.996 116.536 316.996 95.3683C316.996 74.2002 300.898 57.04 281.041 57.04C261.183 57.04 245.086 74.2002 245.086 95.3683C245.086 116.536 261.183 133.697 281.041 133.697Z" fill="#FFB9B9"/>
<path d="M312.356 165.843L253.204 162.134C259.001 147.951 261.317 134.292 259.004 121.333H303.078C302.978 131.283 307.623 148.495 312.356 165.843Z" fill="#FFB9B9"/>
<path d="M349.471 395.812L219.57 405.704L232.907 160.279L255.525 153.479L281.041 159.661L306.557 146.06L322.794 152.243L349.471 395.812Z" fill="#CA6B72"/>
<path d="M241.606 572.617L152.879 550.98C179.262 457.715 226.793 244.351 211.45 168.316L257.844 146.061L241.606 572.617Z" fill="#E6E6E6"/>
<path d="M198.692 303.083L165.057 280.828L193.742 191.27C196.941 182.028 203.069 174.269 211.066 169.334L220.729 163.37L214.93 253.627L198.692 303.083Z" fill="#E6E6E6"/>
<path d="M426.6 552.217C398.596 569.488 328.594 579.116 297.858 567.054C295.597 482.787 291.161 244.429 305.397 143.588L356.43 165.843L351.791 232.608C327.393 289.723 398.239 488.652 426.6 552.217Z" fill="#E6E6E6"/>
<path d="M422.541 291.956L391.225 280.828L349.471 230.135L356.431 165.843L426.02 269.7L422.541 291.956Z" fill="#E6E6E6"/>
<path d="M324.398 340.08C324.911 342.477 326.294 344.56 328.244 345.871C330.195 347.183 332.554 347.616 334.804 347.076L361.387 340.659L357.545 322.571L330.961 328.988C328.711 329.531 326.756 331.005 325.525 333.085C324.294 335.165 323.889 337.681 324.398 340.08Z" fill="#FFB9B9"/>
<path d="M312.356 85.4774C292.385 76.7233 272.661 76.0899 253.204 84.241L245.086 53.3311H319.315L312.356 85.4774Z" fill="#2F2E41"/>
<path d="M348.311 319.156L363.389 348.83C388.75 341.289 410.729 317.518 431.82 289.482L426.02 269.7L390.065 279.591L348.311 319.156Z" fill="#E6E6E6"/>
<path d="M337.293 257.955H332.653C332.653 188.006 319.143 139.261 305.977 139.261L304.817 134.315C316.625 134.315 324.152 154.603 328.388 171.622C334.13 194.695 337.293 225.355 337.293 257.955Z" fill="#3F3D56"/>
<path d="M230.588 240.645H225.948C225.948 176.583 239.552 136.788 259.584 136.788L258.424 141.733C244.568 141.733 230.588 172.318 230.588 240.645Z" fill="#3F3D56"/>
<path d="M334.973 271.555C341.379 271.555 346.572 266.02 346.572 259.191C346.572 252.363 341.379 246.827 334.973 246.827C328.568 246.827 323.375 252.363 323.375 259.191C323.375 266.02 328.568 271.555 334.973 271.555Z" fill="#3F3D56"/>
<path d="M212.03 270.319H207.391C207.391 252.593 216.756 238.172 228.268 238.172V243.118C219.314 243.118 212.03 255.32 212.03 270.319Z" fill="#3F3D56"/>
<path d="M249.145 270.319H244.506C244.506 255.32 237.222 243.118 228.268 243.118V238.172C239.78 238.172 249.145 252.593 249.145 270.319Z" fill="#3F3D56"/>
<path d="M246.825 276.501C249.388 276.501 251.465 274.286 251.465 271.555C251.465 268.824 249.388 266.609 246.825 266.609C244.263 266.609 242.186 268.824 242.186 271.555C242.186 274.286 244.263 276.501 246.825 276.501Z" fill="#3F3D56"/>
<path d="M209.711 276.501C212.273 276.501 214.35 274.286 214.35 271.555C214.35 268.824 212.273 266.609 209.711 266.609C207.148 266.609 205.071 268.824 205.071 271.555C205.071 274.286 207.148 276.501 209.711 276.501Z" fill="#3F3D56"/>
<path d="M151.718 226.077L180.665 231.587L246.825 331.87L211.677 323.054L151.718 226.077Z" fill="#CA6B72"/>
<path d="M146.584 224.85C146.143 224.857 145.712 224.99 145.336 225.236C144.96 225.481 144.652 225.83 144.446 226.245C144.239 226.661 144.141 227.128 144.162 227.598C144.183 228.068 144.322 228.523 144.564 228.916L206.408 328.941C206.753 329.5 207.286 329.897 207.897 330.05L236.671 337.267C237.156 337.389 237.665 337.35 238.129 337.157C238.593 336.963 238.991 336.624 239.27 336.184C239.549 335.744 239.696 335.224 239.692 334.692C239.687 334.161 239.531 333.644 239.245 333.209L171.344 230.291C171.16 230.01 170.926 229.772 170.655 229.588C170.384 229.404 170.082 229.279 169.766 229.219L147.048 224.894C146.895 224.865 146.74 224.85 146.584 224.85Z" fill="#3F3D56"/>
<path d="M185.163 296.367L186.881 314.822L214.004 311.952C216.3 311.709 218.411 310.504 219.873 308.602C221.336 306.699 222.029 304.256 221.801 301.808C221.573 299.361 220.443 297.11 218.658 295.552C216.874 293.993 214.582 293.254 212.286 293.497L185.163 296.367Z" fill="#FFB9B9"/>
<path d="M161.578 294.229C161.617 300.522 163.988 306.543 168.174 310.981C172.36 315.418 178.021 317.913 183.925 317.92H188.384L191.631 289.077L164.748 278.76L161.578 294.229Z" fill="#E6E6E6"/>
<path d="M1097.1 0H568.165V296.979H1097.1V0Z" fill="#A9AABC"/>
<path d="M583.571 280.556H1081.69V16.4229H583.571V280.556Z" fill="#EBEEFF"/>
<path d="M799.253 54.7427H622.085V243.605H799.253V54.7427Z" fill="#3F3D56"/>
<path d="M756.887 140.962C759.723 140.962 762.022 138.511 762.022 135.488C762.022 132.465 759.723 130.014 756.887 130.014C754.051 130.014 751.751 132.465 751.751 135.488C751.751 138.511 754.051 140.962 756.887 140.962Z" fill="#D0A617"/>
<path d="M737.629 121.803C740.466 121.803 742.765 119.352 742.765 116.328C742.765 113.305 740.466 110.854 737.629 110.854C734.793 110.854 732.494 113.305 732.494 116.328C732.494 119.352 734.793 121.803 737.629 121.803Z" fill="#D0A617"/>
<path d="M735.062 135.488C733.172 135.489 731.32 136.048 729.711 137.104C728.294 134.833 726.628 132.749 724.749 130.897C724.771 130.605 724.791 130.312 724.791 130.014C724.793 127.866 724.201 125.765 723.09 123.973C721.978 122.181 720.397 120.777 718.542 119.937C716.687 119.097 714.642 118.857 712.66 119.248C710.679 119.639 708.849 120.643 707.399 122.135C704.649 121.719 701.859 121.693 699.103 122.058C699.104 121.972 699.115 121.889 699.115 121.803C699.117 119.97 698.687 118.166 697.866 116.556C697.044 114.947 695.857 113.583 694.412 112.589C692.968 111.595 691.312 111.004 689.598 110.87C687.883 110.735 686.165 111.062 684.599 111.819C683.034 112.577 681.672 113.741 680.638 115.205C679.604 116.669 678.932 118.387 678.682 120.2C678.433 122.013 678.614 123.864 679.21 125.583C679.806 127.302 680.797 128.834 682.092 130.039C680.373 131.609 678.813 133.367 677.439 135.285C676.171 134.161 674.668 133.378 673.057 133.004C671.445 132.629 669.773 132.674 668.181 133.135C666.59 133.595 665.125 134.457 663.912 135.648C662.699 136.839 661.773 138.324 661.212 139.978C660.651 141.631 660.472 143.404 660.69 145.147C660.908 146.889 661.516 148.55 662.464 149.989C663.411 151.429 664.67 152.603 666.133 153.414C667.596 154.225 669.221 154.648 670.871 154.648L670.903 154.646C670.886 155.102 670.871 155.557 670.871 156.017C670.871 158.771 671.183 161.516 671.8 164.191C668.747 165.416 666.037 167.447 663.922 170.094C661.808 172.741 660.359 175.917 659.712 179.324C659.065 182.732 659.241 186.259 660.222 189.574C661.204 192.889 662.96 195.884 665.325 198.278C667.691 200.672 670.587 202.386 673.744 203.259C676.901 204.132 680.214 204.136 683.373 203.27C686.531 202.404 689.432 200.697 691.802 198.309C694.172 195.921 695.934 192.93 696.923 189.617C704.067 191.08 711.465 189.91 717.903 186.299C718.561 187.949 719.588 189.401 720.895 190.529C722.202 191.657 723.748 192.425 725.399 192.767C727.049 193.109 728.753 193.014 730.361 192.489C731.969 191.965 733.432 191.028 734.621 189.761C735.81 188.493 736.689 186.934 737.18 185.22C737.672 183.506 737.762 181.69 737.441 179.93C737.12 178.171 736.399 176.522 735.341 175.129C734.283 173.736 732.921 172.641 731.373 171.94C733.597 167.44 734.847 162.466 735.029 157.384L735.062 157.385C737.786 157.385 740.398 156.232 742.324 154.179C744.25 152.125 745.332 149.341 745.332 146.437C745.332 143.533 744.25 140.748 742.324 138.695C740.398 136.642 737.786 135.488 735.062 135.488Z" fill="#D0A617"/>
<path d="M732.494 50.6367H681.141V58.8481H732.494V50.6367Z" fill="#A9AABC"/>
<path d="M1025.21 54.7427H848.038V243.605H1025.21V54.7427Z" fill="#3F3D56"/>
<path d="M970.258 182.84C971.534 182.84 972.569 181.738 972.569 180.377C972.569 179.016 971.534 177.914 970.258 177.914C968.982 177.914 967.947 179.016 967.947 180.377C967.947 181.738 968.982 182.84 970.258 182.84Z" fill="#7CA4FF"/>
<path d="M961.592 174.218C962.869 174.218 963.903 173.115 963.903 171.755C963.903 170.394 962.869 169.292 961.592 169.292C960.316 169.292 959.281 170.394 959.281 171.755C959.281 173.115 960.316 174.218 961.592 174.218Z" fill="#7CA4FF"/>
<path d="M960.437 180.377C959.587 180.377 958.753 180.629 958.029 181.104C957.392 180.082 956.642 179.144 955.796 178.311C955.806 178.179 955.815 178.047 955.815 177.913C955.816 176.947 955.55 176.001 955.05 175.195C954.549 174.388 953.838 173.757 953.003 173.379C952.169 173.001 951.248 172.893 950.356 173.069C949.465 173.245 948.641 173.696 947.989 174.368C946.751 174.181 945.496 174.169 944.255 174.333C944.256 174.295 944.261 174.257 944.261 174.218C944.262 173.393 944.069 172.582 943.699 171.857C943.329 171.133 942.795 170.519 942.145 170.072C941.495 169.625 940.75 169.359 939.978 169.298C939.207 169.238 938.433 169.385 937.729 169.726C937.024 170.066 936.412 170.59 935.946 171.249C935.481 171.908 935.179 172.681 935.066 173.497C934.954 174.313 935.036 175.146 935.304 175.919C935.572 176.693 936.018 177.382 936.601 177.924C935.827 178.631 935.125 179.422 934.507 180.285C933.936 179.779 933.26 179.427 932.535 179.259C931.81 179.09 931.057 179.11 930.341 179.318C929.624 179.525 928.966 179.913 928.42 180.449C927.874 180.985 927.457 181.653 927.205 182.397C926.952 183.141 926.872 183.939 926.97 184.723C927.068 185.507 927.341 186.255 927.768 186.902C928.194 187.55 928.761 188.078 929.419 188.443C930.078 188.808 930.809 188.999 931.551 188.999L931.566 188.998C931.558 189.203 931.551 189.408 931.551 189.615C931.551 190.854 931.692 192.089 931.969 193.293C930.595 193.844 929.376 194.758 928.424 195.949C927.473 197.14 926.821 198.57 926.53 200.103C926.238 201.636 926.317 203.223 926.759 204.715C927.201 206.207 927.991 207.555 929.056 208.632C930.12 209.709 931.424 210.481 932.844 210.873C934.265 211.266 935.756 211.268 937.177 210.878C938.598 210.489 939.904 209.721 940.97 208.646C942.037 207.571 942.83 206.225 943.274 204.734C946.489 205.393 949.819 204.867 952.716 203.241C953.012 203.984 953.474 204.637 954.062 205.145C954.65 205.652 955.346 205.998 956.089 206.152C956.831 206.306 957.598 206.263 958.322 206.027C959.045 205.791 959.704 205.37 960.239 204.799C960.774 204.229 961.169 203.527 961.39 202.756C961.612 201.985 961.652 201.167 961.508 200.376C961.363 199.584 961.039 198.842 960.563 198.215C960.087 197.588 959.474 197.095 958.777 196.78C959.778 194.755 960.34 192.517 960.422 190.23L960.437 190.23C961.663 190.23 962.838 189.711 963.705 188.787C964.572 187.863 965.059 186.61 965.059 185.304C965.059 183.997 964.572 182.744 963.705 181.82C962.838 180.896 961.663 180.377 960.437 180.377Z" fill="#7CA4FF"/>
<path d="M988.388 136.092C989.664 136.092 990.699 134.989 990.699 133.629C990.699 132.268 989.664 131.166 988.388 131.166C987.112 131.166 986.077 132.268 986.077 133.629C986.077 134.989 987.112 136.092 988.388 136.092Z" fill="#7CA4FF"/>
<path d="M993.824 124.863C995.101 124.863 996.135 123.76 996.135 122.4C996.135 121.039 995.101 119.937 993.824 119.937C992.548 119.937 991.513 121.039 991.513 122.4C991.513 123.76 992.548 124.863 993.824 124.863Z" fill="#7CA4FF"/>
<path d="M985.726 123.552C985.495 122.679 985.042 121.892 984.416 121.278C985.167 120.347 985.81 119.323 986.334 118.23C986.455 118.204 986.576 118.178 986.697 118.142C987.57 117.88 988.352 117.351 988.945 116.619C989.537 115.887 989.915 114.986 990.03 114.027C990.145 113.068 989.993 112.094 989.592 111.227C989.192 110.36 988.56 109.637 987.777 109.15C987.611 107.829 987.281 106.538 986.797 105.31C986.832 105.3 986.867 105.294 986.902 105.284C987.647 105.061 988.327 104.643 988.881 104.067C989.435 103.492 989.844 102.777 990.072 101.989C990.299 101.201 990.338 100.364 990.183 99.5561C990.029 98.748 989.686 97.9942 989.188 97.3638C988.689 96.7334 988.05 96.2465 987.329 95.9478C986.608 95.649 985.828 95.548 985.061 95.654C984.294 95.7599 983.564 96.0695 982.938 96.5542C982.312 97.039 981.81 97.6835 981.479 98.4285C980.631 97.8262 979.726 97.3205 978.779 96.92C979.082 96.1975 979.216 95.4079 979.172 94.6182C979.127 93.8285 978.905 93.0618 978.524 92.383C978.143 91.7042 977.614 91.1332 976.982 90.7184C976.35 90.3035 975.633 90.057 974.893 89.9997C974.153 89.9425 973.411 90.0761 972.729 90.3892C972.048 90.7024 971.447 91.1859 970.978 91.799C970.509 92.412 970.185 93.1364 970.034 93.911C969.883 94.6856 969.909 95.4876 970.11 96.2491L970.115 96.2639C969.928 96.3116 969.741 96.36 969.554 96.416C968.435 96.7522 967.358 97.231 966.346 97.8421C965.476 96.582 964.32 95.5782 962.987 94.9249C961.653 94.2715 960.186 93.99 958.723 94.1068C957.259 94.2237 955.847 94.7349 954.62 95.5927C953.393 96.4505 952.39 97.6266 951.706 99.0107C951.022 100.395 950.679 101.942 950.709 103.506C950.739 105.07 951.142 106.6 951.879 107.953C952.616 109.306 953.663 110.437 954.923 111.24C956.182 112.043 957.613 112.492 959.08 112.544C959.356 116.021 960.734 119.295 962.987 121.827C962.397 122.332 961.932 122.983 961.633 123.724C961.334 124.465 961.211 125.273 961.273 126.077C961.335 126.881 961.582 127.656 961.991 128.334C962.4 129.013 962.959 129.574 963.619 129.968C964.279 130.363 965.02 130.578 965.777 130.596C966.533 130.614 967.282 130.434 967.958 130.071C968.634 129.709 969.216 129.175 969.653 128.516C970.09 127.858 970.369 127.095 970.465 126.295C972.564 126.773 974.738 126.743 976.825 126.208L976.828 126.223C976.993 126.846 977.27 127.429 977.646 127.937C978.021 128.446 978.487 128.871 979.017 129.188C979.546 129.504 980.129 129.707 980.732 129.783C981.335 129.859 981.946 129.809 982.531 129.633C983.115 129.458 983.662 129.161 984.139 128.76C984.616 128.36 985.014 127.863 985.311 127.298C985.607 126.733 985.797 126.112 985.868 125.469C985.939 124.826 985.891 124.175 985.726 123.552Z" fill="#7CA4FF"/>
<path d="M898.884 102.617C900.16 102.617 901.195 101.514 901.195 100.154C901.195 98.7933 900.16 97.6904 898.884 97.6904C897.608 97.6904 896.573 98.7933 896.573 100.154C896.573 101.514 897.608 102.617 898.884 102.617Z" fill="#7CA4FF"/>
<path d="M887.068 103.626C888.345 103.626 889.379 102.523 889.379 101.163C889.379 99.8021 888.345 98.6992 887.068 98.6992C885.792 98.6992 884.757 99.8021 884.757 101.163C884.757 102.523 885.792 103.626 887.068 103.626Z" fill="#7CA4FF"/>
<path d="M892.262 107.886C891.689 108.555 891.302 109.381 891.143 110.272C890.005 110.084 888.85 110.042 887.702 110.146C887.618 110.05 887.533 109.954 887.44 109.863C886.77 109.211 885.936 108.783 885.04 108.633C884.144 108.483 883.227 108.618 882.402 109.02C881.577 109.422 880.882 110.074 880.403 110.894C879.924 111.715 879.681 112.668 879.707 113.634C878.743 114.482 877.888 115.463 877.165 116.55C877.139 116.523 877.116 116.494 877.089 116.468C876.519 115.912 875.826 115.516 875.075 115.319C874.324 115.122 873.538 115.128 872.79 115.339C872.042 115.549 871.356 115.956 870.794 116.523C870.231 117.089 869.812 117.797 869.573 118.582C869.334 119.366 869.284 120.202 869.427 121.012C869.569 121.823 869.901 122.582 870.39 123.221C870.88 123.859 871.512 124.356 872.229 124.667C872.945 124.977 873.724 125.091 874.492 124.998C874.46 126.083 874.535 127.169 874.716 128.238C873.981 128.346 873.281 128.641 872.675 129.098C872.07 129.556 871.576 130.162 871.237 130.865C870.897 131.569 870.722 132.349 870.725 133.14C870.729 133.931 870.91 134.71 871.256 135.41C871.601 136.111 872.099 136.712 872.709 137.164C873.318 137.615 874.021 137.904 874.757 138.005C875.493 138.106 876.241 138.016 876.938 137.744C877.634 137.471 878.259 137.024 878.76 136.44L878.769 136.428C878.906 136.572 879.043 136.716 879.186 136.855C880.045 137.691 880.996 138.413 882.017 139.006C881.472 140.459 881.283 142.035 881.467 143.588C881.651 145.14 882.201 146.617 883.067 147.88C883.933 149.143 885.086 150.151 886.418 150.809C887.749 151.467 889.215 151.753 890.679 151.642C892.143 151.53 893.556 151.024 894.786 150.17C896.016 149.317 897.023 148.144 897.711 146.763C898.4 145.381 898.747 143.835 898.722 142.271C898.696 140.707 898.299 139.175 897.566 137.82C900.19 135.733 902.07 132.757 902.897 129.38C903.611 129.648 904.375 129.725 905.123 129.604C905.872 129.483 906.58 129.168 907.188 128.687C907.795 128.206 908.282 127.574 908.607 126.845C908.931 126.116 909.083 125.314 909.048 124.508C909.014 123.702 908.795 122.918 908.409 122.224C908.024 121.53 907.485 120.947 906.839 120.526C906.193 120.106 905.461 119.861 904.705 119.814C903.95 119.766 903.195 119.916 902.507 120.252C901.779 118.099 900.608 116.147 899.079 114.54L899.089 114.529C899.499 114.052 899.817 113.492 900.024 112.884C900.232 112.275 900.324 111.629 900.297 110.982C900.27 110.335 900.124 109.7 899.866 109.113C899.608 108.527 899.245 108 898.796 107.564C898.348 107.127 897.823 106.789 897.251 106.569C896.68 106.349 896.074 106.251 895.467 106.281C894.86 106.311 894.265 106.468 893.715 106.743C893.165 107.018 892.671 107.407 892.262 107.886Z" fill="#7CA4FF"/>
<path d="M958.447 50.6367H907.094V58.8481H958.447V50.6367Z" fill="#A9AABC"/>
<path d="M32.3221 698.301C50.8344 724.729 89.2622 727.511 89.2622 727.511C89.2622 727.511 97.6758 687.444 79.1635 661.015C60.6512 634.587 22.2234 631.805 22.2234 631.805C22.2234 631.805 13.8098 671.872 32.3221 698.301Z" fill="#37706E"/>
<path d="M126.628 708.236C114.412 725.675 89.0544 727.511 89.0544 727.511C89.0544 727.511 83.5025 701.072 95.7183 683.632C107.934 666.193 133.291 664.357 133.291 664.357C133.291 664.357 138.843 690.797 126.628 708.236Z" fill="#37706E"/>
<path d="M667.019 787.823H0V790.89H667.019V787.823Z" fill="#3F3D56"/>
</g>
<defs>
<clipPath id="clip0_512_561">
<rect width="1097.1" height="790.89" fill="white"/>
</clipPath>
</defs>
</svg>
