<svg width="615" height="529" viewBox="0 0 615 529" fill="none" xmlns="http://www.w3.org/2000/svg">
<g clip-path="url(#clip0_543_4)">
<path d="M434.576 200.328C434.686 200.812 434.758 201.305 434.791 201.8L473.362 224.052L482.737 218.655L492.732 231.739L477.063 242.907C475.797 243.809 474.273 244.276 472.719 244.238C471.165 244.2 469.665 243.659 468.445 242.697L428.671 211.319C426.876 211.983 424.922 212.086 423.067 211.612C421.213 211.138 419.546 210.111 418.29 208.668C417.033 207.224 416.246 205.432 416.033 203.53C415.82 201.628 416.191 199.706 417.096 198.02C418.002 196.334 419.4 194.963 421.103 194.091C422.807 193.218 424.736 192.885 426.633 193.136C428.531 193.386 430.307 194.209 431.726 195.493C433.145 196.778 434.139 198.464 434.576 200.328Z" fill="#FFB6B6"/>
<path d="M473.898 221.595C474.02 221.028 474.263 220.493 474.611 220.028C474.959 219.563 475.403 219.179 475.913 218.901L493.72 209.199C496.092 207.409 499.076 206.632 502.019 207.04C504.962 207.447 507.624 209.005 509.42 211.372C511.216 213.739 512 216.721 511.6 219.665C511.2 222.609 509.649 225.274 507.287 227.076L493.014 241.575C492.607 241.989 492.115 242.31 491.573 242.517C491.03 242.723 490.449 242.811 489.87 242.773C489.291 242.734 488.726 242.572 488.215 242.296C487.704 242.02 487.259 241.637 486.909 241.174L474.621 224.882C474.271 224.418 474.025 223.885 473.901 223.317C473.776 222.75 473.775 222.163 473.898 221.595Z" fill="#3F3D56"/>
<path d="M504.906 165.976C507.469 157.81 513.295 150.321 521.353 147.561C529.411 144.8 541.211 149.005 547.269 155.043C558.35 166.087 558.691 179.606 551.078 191.596C549.563 191.516 544.338 191.456 542.805 191.399L540.637 184.173V191.328C528.674 190.958 516.22 191.189 503.759 191.429C502.642 182.94 502.344 174.141 504.906 165.976Z" fill="#2F2E41"/>
<path d="M502.283 507.932H491.372L486.181 465.845L502.285 465.846L502.283 507.932Z" fill="#FFB6B6"/>
<path d="M569.531 507.932H558.62L553.429 465.845L569.533 465.846L569.531 507.932Z" fill="#FFB6B6"/>
<path d="M537.67 249.442L540.142 255.87L539.648 262.299L491.261 279.058L493.662 250.926L499.101 244.498L537.67 249.442Z" fill="#FFB6B6"/>
<path d="M522.371 191.596C531.916 191.596 539.653 183.859 539.653 174.314C539.653 164.77 531.916 157.033 522.371 157.033C512.827 157.033 505.089 164.77 505.089 174.314C505.089 183.859 512.827 191.596 522.371 191.596Z" fill="#FFB7B7"/>
<path d="M548.504 278.938V289.921C548.504 289.921 561.36 306.628 554.438 319.484L574.273 490.576H553.505L518.836 346.186L504.058 487.609H486.258L484.135 375.132C483.577 345.547 488.517 316.115 498.703 288.333L548.504 278.938Z" fill="#2F2E41"/>
<path d="M510.497 151.811C513.817 149.786 517.621 148.691 521.509 148.64C525.398 148.589 529.229 149.583 532.602 151.519C535.975 153.455 538.765 156.262 540.682 159.646C542.599 163.03 543.572 166.866 543.498 170.755C533.838 171.199 523.69 171.315 513.401 171.335L510.969 165.383L509.535 171.339C506.4 171.339 503.259 171.334 500.111 171.327C499.983 167.449 500.874 163.606 502.697 160.181C504.519 156.757 507.209 153.87 510.497 151.811Z" fill="#2F2E41"/>
<path d="M507.164 528.65H499.421L498.039 521.34L494.5 528.65H473.965C472.981 528.65 472.022 528.336 471.229 527.752C470.436 527.169 469.851 526.347 469.558 525.408C469.265 524.468 469.28 523.459 469.601 522.529C469.922 521.598 470.532 520.795 471.342 520.235L487.741 508.91V501.52L504.989 502.549L507.164 528.65Z" fill="#2F2E41"/>
<path d="M575.401 528.65H567.659L566.277 521.34L562.737 528.65H542.202C541.218 528.65 540.259 528.336 539.467 527.752C538.674 527.169 538.088 526.347 537.795 525.408C537.502 524.468 537.517 523.459 537.838 522.529C538.159 521.598 538.769 520.795 539.579 520.235L555.978 508.91V501.52L573.226 502.549L575.401 528.65Z" fill="#2F2E41"/>
<path d="M556.367 314.163C557.328 300.964 556.338 287.694 553.429 274.783C549.759 258.489 545.095 237.755 545.004 237.219C545.003 237.208 545.002 237.198 545.002 237.187L543.58 206.816C543.576 206.728 543.539 206.645 543.476 206.583C543.413 206.521 543.329 206.485 543.241 206.482L533.408 206.151C533.317 206.148 533.231 206.11 533.167 206.044C533.104 205.979 533.069 205.891 533.069 205.8C533.069 205.068 532.924 204.342 532.644 203.666C532.364 202.989 531.953 202.374 531.435 201.856C530.917 201.338 530.302 200.927 529.625 200.647C528.948 200.366 528.223 200.222 527.49 200.222H507.851C506.579 200.223 505.351 200.687 504.397 201.529C503.443 202.371 502.83 203.532 502.671 204.794C502.662 204.881 502.621 204.961 502.556 205.019C502.49 205.077 502.405 205.108 502.318 205.106L494.676 204.849C494.599 204.847 494.524 204.869 494.461 204.914C494.399 204.958 494.352 205.021 494.329 205.095L493.798 206.784C486.083 231.627 483.941 257.867 487.524 283.633C488.45 290.49 488.03 300.8 487.68 306.543C487.645 307.105 487.722 307.668 487.905 308.2C488.089 308.731 488.376 309.222 488.749 309.642C489.123 310.063 489.576 310.406 490.082 310.651C490.588 310.896 491.138 311.039 491.7 311.071C505.907 311.888 546.133 331.352 555.764 322.059C555.787 322.037 556.044 318.609 556.367 314.163Z" fill="#3F3D56"/>
<path d="M477.577 200.328C477.687 200.812 477.759 201.305 477.792 201.8L516.363 224.052L525.739 218.655L535.733 231.739L520.065 242.907C518.799 243.809 517.274 244.276 515.72 244.238C514.167 244.2 512.667 243.659 511.446 242.697L471.673 211.319C469.878 211.983 467.923 212.086 466.069 211.612C464.214 211.138 462.548 210.111 461.291 208.668C460.035 207.224 459.247 205.432 459.034 203.53C458.821 201.628 459.192 199.706 460.098 198.02C461.003 196.334 462.401 194.963 464.105 194.091C465.808 193.218 467.737 192.885 469.635 193.136C471.532 193.386 473.308 194.209 474.727 195.493C476.146 196.778 477.14 198.464 477.577 200.328Z" fill="#FFB6B6"/>
<path d="M516.899 221.595C517.021 221.028 517.265 220.493 517.613 220.028C517.96 219.563 518.404 219.179 518.914 218.901L536.722 209.198C539.093 207.409 542.077 206.634 545.02 207.041C547.963 207.449 550.623 209.007 552.419 211.373C554.215 213.74 554.999 216.722 554.6 219.665C554.2 222.609 552.65 225.274 550.288 227.076L536.016 241.575C535.609 241.989 535.117 242.31 534.574 242.517C534.032 242.723 533.451 242.811 532.871 242.773C532.292 242.734 531.728 242.572 531.217 242.296C530.706 242.02 530.26 241.637 529.911 241.174L517.623 224.881C517.273 224.418 517.027 223.884 516.902 223.317C516.777 222.75 516.776 222.163 516.899 221.595Z" fill="#3F3D56"/>
<path d="M45.0002 468.695C69.8531 468.695 90.0004 448.548 90.0004 423.695C90.0004 398.842 69.8531 378.695 45.0002 378.695C20.1473 378.695 0 398.842 0 423.695C0 448.548 20.1473 468.695 45.0002 468.695Z" fill="#D0A617"/>
<path d="M343.4 113.456C368.253 113.456 388.4 93.3084 388.4 68.4556C388.4 43.6028 368.253 23.4556 343.4 23.4556C318.547 23.4556 298.4 43.6028 298.4 68.4556C298.4 93.3084 318.547 113.456 343.4 113.456Z" fill="#D0A617"/>
<path d="M442.655 267.54L116.545 417.263C111.903 419.387 106.608 419.584 101.821 417.81C97.0343 416.035 93.1468 412.435 91.0116 407.798L10.5357 232.515C8.4109 227.873 8.21414 222.578 9.98856 217.791C11.763 213.005 15.3637 209.117 20.0008 206.982L346.11 57.2593C350.752 55.1345 356.047 54.9378 360.834 56.7122C365.621 58.4866 369.509 62.0873 371.644 66.7243L452.12 242.007C454.245 246.648 454.441 251.944 452.667 256.73C450.893 261.517 447.292 265.405 442.655 267.54Z" fill="white"/>
<path d="M25.4248 218.797C23.9184 219.49 22.7486 220.753 22.1722 222.308C21.5958 223.863 21.6597 225.584 22.35 227.092L102.826 402.374C103.52 403.88 104.782 405.05 106.338 405.626C107.893 406.203 109.613 406.139 111.121 405.449L437.231 255.726C438.737 255.032 439.907 253.769 440.483 252.214C441.06 250.659 440.996 248.939 440.305 247.431L359.829 72.1489C359.136 70.6425 357.873 69.4728 356.318 68.8963C354.763 68.3199 353.042 68.3838 351.534 69.0741L25.4248 218.797Z" fill="#E4E4E4"/>
<path d="M442.655 267.54L116.545 417.263C111.903 419.387 106.608 419.584 101.821 417.81C97.0343 416.035 93.1468 412.435 91.0116 407.798L10.5357 232.515C8.4109 227.873 8.21414 222.578 9.98856 217.791C11.763 213.005 15.3637 209.117 20.0008 206.982L346.11 57.2593C350.752 55.1345 356.047 54.9378 360.834 56.7122C365.621 58.4866 369.509 62.0873 371.644 66.7243L452.12 242.007C454.245 246.648 454.441 251.944 452.667 256.73C450.893 261.517 447.292 265.405 442.655 267.54ZM20.8351 208.799C16.6797 210.713 13.453 214.197 11.8629 218.486C10.2728 222.776 10.4491 227.521 12.3533 231.681L92.8291 406.963C94.7427 411.118 98.2264 414.345 102.516 415.935C106.806 417.525 111.551 417.349 115.711 415.445L441.82 265.722C445.976 263.809 449.202 260.325 450.793 256.036C452.383 251.746 452.206 247.001 450.302 242.841L369.826 67.5588C367.913 63.4034 364.429 60.1767 360.139 58.5866C355.85 56.9965 351.105 57.1728 346.945 59.0769L20.8351 208.799Z" fill="#CACACA"/>
<path d="M361.168 188L102.093 306.946C100.007 307.9 97.6762 308.187 95.4203 307.768C93.1644 307.349 91.0928 306.243 89.4884 304.603L13.6884 226.87C12.4453 225.595 11.5263 224.041 11.0089 222.337C10.4914 220.633 10.3905 218.83 10.7147 217.079C11.0389 215.328 11.7787 213.681 12.8719 212.275C13.9651 210.87 15.3798 209.747 16.997 209.002L349.017 55.9474C350.613 55.2121 352.36 54.8654 354.116 54.9357C355.872 55.0059 357.586 55.4912 359.119 56.3517C360.651 57.2122 361.958 58.4234 362.932 59.8862C363.905 61.349 364.519 63.0217 364.722 64.7673L364.766 64.7662L367.647 177.608C367.704 179.784 367.12 181.93 365.968 183.777C364.816 185.625 363.147 187.093 361.168 188ZM349.865 57.7585L17.8339 210.818C16.5075 211.429 15.3472 212.35 14.4506 213.503C13.554 214.656 12.9472 216.007 12.6813 217.443C12.4153 218.879 12.4981 220.358 12.9225 221.755C13.3469 223.153 14.1006 224.428 15.1202 225.474L90.92 303.206C92.236 304.552 93.9351 305.459 95.7855 305.803C97.6358 306.146 99.5473 305.911 101.259 305.128L360.333 186.182C361.957 185.439 363.326 184.234 364.271 182.719C365.215 181.203 365.694 179.444 365.647 177.659L362.792 65.817C362.754 64.3078 362.341 62.8317 361.592 61.5211C360.842 60.2106 359.779 59.1065 358.498 58.3078C357.217 57.5092 355.758 57.0409 354.251 56.945C352.744 56.8492 351.237 57.1287 349.865 57.7585Z" fill="#CACACA"/>
<path d="M198.705 348.913L117.988 385.971C117.402 386.241 116.769 386.392 116.125 386.417C115.48 386.442 114.838 386.339 114.233 386.116C113.628 385.892 113.074 385.551 112.601 385.113C112.128 384.674 111.746 384.147 111.477 383.561C111.208 382.975 111.057 382.342 111.033 381.698C111.009 381.053 111.112 380.411 111.336 379.806C111.56 379.202 111.902 378.647 112.341 378.175C112.779 377.702 113.307 377.321 113.893 377.052L194.61 339.994C195.793 339.452 197.142 339.402 198.361 339.855C199.58 340.308 200.57 341.226 201.112 342.408C201.655 343.59 201.706 344.939 201.255 346.159C200.803 347.378 199.886 348.369 198.705 348.913Z" fill="white"/>
<path d="M257.755 234.378C259.141 237.388 259.92 240.642 260.047 243.954C260.174 247.265 259.648 250.57 258.497 253.677C257.347 256.785 255.595 259.636 253.342 262.067C251.09 264.497 248.38 266.46 245.368 267.843C242.356 269.225 239.102 270.001 235.79 270.125C232.478 270.249 229.175 269.72 226.068 268.566C222.961 267.413 220.112 265.659 217.684 263.404C215.255 261.149 213.295 258.437 211.915 255.424" fill="#CACACA"/>
<path d="M439.747 505.953H80.9088C75.8037 505.947 70.9093 503.917 67.2994 500.307C63.6896 496.697 61.659 491.803 61.6533 486.698V293.824C61.6591 288.719 63.6897 283.825 67.2996 280.215C70.9094 276.605 75.8037 274.575 80.9088 274.569H439.747C444.852 274.575 449.746 276.605 453.356 280.215C456.966 283.825 458.996 288.719 459.002 293.824V486.698C458.996 491.803 456.966 496.697 453.356 500.307C449.746 503.917 444.852 505.947 439.747 505.953Z" fill="white"/>
<path d="M80.9087 287.569C79.2503 287.571 77.6603 288.23 76.4876 289.403C75.3148 290.576 74.6552 292.166 74.6533 293.824V486.698C74.6552 488.356 75.3148 489.946 76.4876 491.119C77.6603 492.292 79.2503 492.951 80.9087 492.953H439.747C441.405 492.951 442.995 492.292 444.168 491.119C445.34 489.946 446 488.356 446.002 486.698V293.824C446 292.166 445.34 290.576 444.168 289.403C442.995 288.23 441.405 287.571 439.747 287.569H80.9087Z" fill="#7583CA"/>
<path d="M439.747 505.953H80.9088C75.8037 505.947 70.9093 503.917 67.2994 500.307C63.6896 496.697 61.659 491.803 61.6533 486.698V293.824C61.6591 288.719 63.6897 283.825 67.2996 280.215C70.9094 276.605 75.8037 274.575 80.9088 274.569H439.747C444.852 274.575 449.746 276.605 453.356 280.215C456.966 283.825 458.996 288.719 459.002 293.824V486.698C458.996 491.803 456.966 496.697 453.356 500.307C449.746 503.917 444.852 505.947 439.747 505.953ZM80.9088 276.569C76.3339 276.574 71.948 278.394 68.713 281.629C65.4781 284.863 63.6585 289.249 63.6533 293.824V486.698C63.6585 491.273 65.4781 495.659 68.713 498.893C71.948 502.128 76.3339 503.948 80.9088 503.953H439.747C444.321 503.948 448.707 502.128 451.942 498.893C455.177 495.659 456.997 491.273 457.002 486.698V293.824C456.997 289.249 455.177 284.863 451.942 281.629C448.707 278.394 444.321 276.574 439.747 276.569H80.9088Z" fill="#3F3D56"/>
<path d="M398.88 399.667H113.805C111.51 399.664 109.273 398.953 107.397 397.631C105.522 396.308 104.101 394.439 103.327 392.279L66.8742 290.009C66.2763 288.332 66.0899 286.536 66.3306 284.771C66.5712 283.007 67.2319 281.326 68.2571 279.87C69.2822 278.414 70.642 277.226 72.222 276.405C73.8019 275.583 75.556 275.153 77.3366 275.151L442.936 274.589C444.693 274.587 446.426 275.001 447.992 275.797C449.559 276.594 450.914 277.75 451.948 279.171C452.981 280.593 453.663 282.239 453.938 283.974C454.213 285.71 454.072 287.486 453.528 289.157L453.569 289.175L409.104 392.926C408.248 394.928 406.822 396.634 405.005 397.833C403.187 399.031 401.057 399.669 398.88 399.667ZM442.951 276.589L77.3393 277.151C75.8788 277.153 74.4402 277.506 73.1444 278.179C71.8485 278.853 70.7332 279.827 69.8924 281.022C69.0515 282.216 68.5096 283.594 68.3123 285.041C68.1149 286.488 68.2678 287.962 68.7581 289.337L105.211 391.607C105.845 393.379 107.011 394.912 108.549 395.997C110.087 397.081 111.923 397.665 113.805 397.667H398.88C400.666 397.669 402.413 397.146 403.903 396.162C405.394 395.179 406.563 393.78 407.266 392.138L451.337 289.306C451.932 287.918 452.173 286.405 452.038 284.901C451.904 283.397 451.399 281.95 450.568 280.69C449.736 279.43 448.606 278.395 447.276 277.679C445.947 276.964 444.461 276.589 442.951 276.589Z" fill="#3F3D56"/>
<path d="M184.094 478.118H95.2765C93.9751 478.118 92.7271 477.601 91.8068 476.681C90.8866 475.761 90.3696 474.512 90.3696 473.211C90.3696 471.91 90.8866 470.662 91.8068 469.741C92.7271 468.821 93.9751 468.304 95.2765 468.304H184.094C185.396 468.304 186.644 468.821 187.564 469.741C188.484 470.662 189.001 471.91 189.001 473.211C189.001 474.512 188.484 475.761 187.564 476.681C186.644 477.601 185.396 478.118 184.094 478.118Z" fill="white"/>
<path d="M285.548 398.668C285.548 405.357 282.891 411.772 278.161 416.501C273.432 421.231 267.017 423.888 260.328 423.888C253.639 423.888 247.224 421.231 242.494 416.501C237.765 411.772 235.107 405.357 235.107 398.668" fill="#3F3D56"/>
<path d="M126.001 108.695C130.971 108.695 135.001 104.666 135.001 99.6953C135.001 94.7247 130.971 90.6953 126.001 90.6953C121.03 90.6953 117 94.7247 117 99.6953C117 104.666 121.03 108.695 126.001 108.695Z" fill="#D0A617"/>
<path d="M9.00004 324.695C13.9706 324.695 18.0001 320.666 18.0001 315.695C18.0001 310.725 13.9706 306.695 9.00004 306.695C4.02946 306.695 0 310.725 0 315.695C0 320.666 4.02946 324.695 9.00004 324.695Z" fill="#D0A617"/>
<path d="M459.002 155.695C463.973 155.695 468.002 151.666 468.002 146.695C468.002 141.725 463.973 137.695 459.002 137.695C454.031 137.695 450.002 141.725 450.002 146.695C450.002 151.666 454.031 155.695 459.002 155.695Z" fill="#D0A617"/>
<path d="M613.059 528.65H441.764C441.449 528.65 441.146 528.525 440.922 528.301C440.699 528.078 440.574 527.775 440.574 527.459C440.574 527.144 440.699 526.841 440.922 526.617C441.146 526.394 441.449 526.269 441.764 526.269H613.059C613.374 526.269 613.676 526.395 613.899 526.619C614.122 526.842 614.246 527.144 614.246 527.459C614.246 527.774 614.122 528.077 613.899 528.3C613.676 528.523 613.374 528.649 613.059 528.65Z" fill="#CACACA"/>
</g>
<defs>
<clipPath id="clip0_543_4">
<rect width="614.25" height="528.65" fill="white"/>
</clipPath>
</defs>
</svg>
