<svg width="1194" height="139" viewBox="0 0 1194 139" fill="none" xmlns="http://www.w3.org/2000/svg">
<path d="M0 0V139H1194V134.5C1194 134.5 1145.12 139.515 1094 131.5C950.5 109 923 70.162 729 56.5C569.256 45.2504 390 76.5 237.5 73C85 69.5 0 0 0 0Z" fill="#D7DDFF"/>
<path d="M1142.65 139C993.623 139 905.317 119.641 904.375 119.418C727.8 80.328 619.556 87.7828 469.778 98.1154C430.054 100.855 388.934 103.691 342.049 106.069C112.897 117.708 1.13068 83.9338 0 83.5833V82C1.09299 82.3398 114.443 116.551 341.333 105.029C388.143 102.65 429.149 99.8252 468.836 97.0854C619.669 86.689 728.629 79.1811 906.674 118.59C907.767 118.834 1016.29 143.087 1194 138V139C1176.55 139.51 1158.74 139 1142.65 139Z" fill="#EBEEFF"/>
</svg>
